<svg xmlns="http://www.w3.org/2000/svg" xmlns:xlink="http://www.w3.org/1999/xlink" width="500" zoomAndPan="magnify" viewBox="0 0 375 374.999991" height="500" preserveAspectRatio="xMidYMid meet" version="1.0"><defs><g/><clipPath id="fd0c96ce52"><path d="M 106.105469 84.527344 L 268.855469 84.527344 L 268.855469 237.527344 L 106.105469 237.527344 Z M 106.105469 84.527344 " clip-rule="nonzero"/></clipPath></defs><g clip-path="url(#fd0c96ce52)"><path fill="#000000" d="M 122.488281 195.632812 C 123.292969 196.320312 124.25 196.714844 125.191406 197.1875 C 125.292969 196.878906 125.351562 196.695312 125.414062 196.511719 C 125.550781 196.523438 125.722656 196.480469 125.824219 196.550781 C 126.46875 196.988281 127.097656 197.453125 127.738281 197.902344 C 127.96875 198.0625 128.296875 198.390625 128.433594 198.328125 C 129.417969 197.867188 129.71875 198.6875 130.074219 199.214844 C 130.75 200.210938 131.339844 201.273438 131.9375 202.316406 C 132.179688 202.738281 132.367188 203.191406 132.625 203.714844 C 135.03125 202.734375 137.484375 202.355469 139.996094 202.023438 C 140.070312 201.589844 140.183594 201.253906 140.183594 200.921875 C 140.195312 194.585938 140.191406 188.253906 140.183594 181.921875 C 140.183594 181.648438 140.121094 181.371094 140.070312 180.960938 C 138.714844 180.839844 137.367188 181.183594 136.066406 180.6875 C 134.738281 180.179688 133.832031 179.238281 132.988281 178.007812 C 132.28125 178.695312 131.75 179.367188 131.074219 179.824219 C 130.378906 180.289062 129.574219 180.6875 128.761719 180.851562 C 127.875 181.027344 126.902344 181.035156 126.011719 180.871094 C 125.199219 180.722656 124.375 180.347656 123.679688 179.882812 C 122.988281 179.421875 122.453125 178.734375 121.828125 178.125 C 121.375 178.03125 121.265625 178.445312 121.082031 178.710938 C 119.191406 181.515625 114.804688 181.820312 112.480469 179.332031 C 112.246094 179.082031 111.984375 178.863281 111.6875 178.589844 C 111.199219 179.019531 110.796875 179.417969 110.351562 179.761719 C 107.8125 181.695312 104.074219 181.382812 102.007812 179.070312 C 101.324219 178.304688 100.867188 177.433594 100.863281 176.386719 C 100.855469 174.542969 100.859375 172.695312 100.859375 170.75 C 119.203125 158.871094 137.535156 147 155.921875 135.089844 C 156.074219 131.421875 155.910156 127.800781 156.003906 124.074219 C 160.515625 119.960938 165.484375 116.433594 170.9375 113.59375 C 176.40625 110.742188 182.167969 108.816406 188.347656 108.394531 C 188.808594 107.546875 188.664062 106.753906 188.664062 105.988281 C 188.671875 99.796875 188.664062 93.609375 188.660156 87.417969 C 188.660156 86.644531 188.660156 85.867188 188.660156 85.25 C 189.320312 84.527344 190 84.71875 190.617188 84.714844 C 195.179688 84.707031 199.734375 84.722656 204.296875 84.726562 C 207.003906 84.726562 209.710938 84.710938 212.417969 84.714844 C 212.820312 84.714844 213.269531 84.539062 213.703125 85.027344 C 213.09375 85.710938 212.21875 86.003906 211.480469 86.480469 C 210.765625 86.945312 210.015625 87.355469 209.28125 87.792969 C 208.484375 88.265625 207.6875 88.738281 206.898438 89.21875 C 206.175781 89.65625 205.464844 90.113281 204.617188 90.640625 C 206.15625 91.855469 207.742188 92.636719 209.238281 93.554688 C 210.738281 94.46875 212.253906 95.347656 213.777344 96.253906 C 213.347656 96.882812 212.800781 96.628906 212.351562 96.625 C 206.082031 96.613281 199.8125 96.570312 193.539062 96.558594 C 192.78125 96.558594 191.964844 96.347656 191.296875 96.917969 C 190.960938 98.765625 190.96875 106.367188 191.328125 108.292969 C 192.382812 108.453125 193.488281 108.636719 194.597656 108.789062 C 198.082031 109.273438 201.375 110.375 204.558594 111.832031 C 210.589844 114.59375 215.804688 118.492188 220.472656 123.167969 C 221.125 123.828125 221.371094 124.523438 221.359375 125.4375 C 221.3125 128.566406 221.339844 131.695312 221.339844 134.855469 C 221.902344 135.621094 222.734375 136.054688 223.484375 136.578125 C 232.625 143.007812 241.777344 149.425781 250.925781 155.847656 C 257.566406 160.511719 264.203125 165.183594 270.84375 169.851562 C 271.191406 170.097656 271.542969 170.335938 271.894531 170.582031 C 272.324219 170.894531 272.554688 171.296875 272.542969 171.851562 C 272.523438 173.273438 272.582031 174.699219 272.507812 176.117188 C 272.386719 178.328125 271.257812 179.863281 269.171875 180.628906 C 267.054688 181.410156 265.105469 181.066406 263.402344 179.578125 C 262.929688 179.167969 262.558594 178.648438 262.070312 178.097656 C 261.417969 178.707031 260.878906 179.378906 260.191406 179.8125 C 259.421875 180.292969 258.542969 180.679688 257.660156 180.875 C 256.84375 181.050781 255.933594 181.050781 255.117188 180.882812 C 254.234375 180.695312 253.351562 180.3125 252.582031 179.832031 C 251.878906 179.394531 251.335938 178.707031 250.714844 178.125 C 248.136719 181.742188 243.730469 182.328125 240.59375 177.984375 C 240.078125 178.011719 240.109375 178.414062 240.109375 178.742188 C 240.082031 181.519531 240.054688 184.292969 240.054688 187.070312 C 240.050781 190.910156 240.0625 194.753906 240.074219 198.597656 C 240.078125 199.304688 240.101562 200.007812 240.113281 200.722656 C 241.28125 201.328125 242.390625 201.105469 243.582031 201.0625 C 243.75 199.941406 243.890625 198.898438 244.0625 197.863281 C 244.527344 195.039062 245.765625 192.617188 247.804688 190.589844 C 249.5625 188.847656 251.636719 187.9375 254.117188 187.9375 C 255.355469 187.9375 255.355469 187.90625 256.195312 187.277344 C 256.6875 187.746094 257.105469 188.351562 257.683594 188.660156 C 258.847656 189.277344 259.789062 190.097656 260.613281 191.09375 C 261.054688 191.628906 261.535156 192.121094 262.203125 192.855469 C 261.515625 192.734375 261.128906 192.667969 260.621094 192.582031 C 260.589844 192.976562 260.558594 193.34375 260.527344 193.785156 C 260.148438 193.542969 259.824219 193.335938 259.371094 193.046875 C 258.902344 194.753906 258.789062 196.367188 259.019531 197.976562 C 259.09375 198.507812 259.464844 199.011719 259.738281 199.503906 C 260.042969 200.0625 260.433594 200.582031 260.714844 201.152344 C 261.40625 202.535156 261.199219 203.800781 260.167969 204.875 C 259.359375 205.71875 258.511719 205.929688 257.472656 205.34375 C 256.679688 204.894531 255.972656 204.277344 255.28125 203.671875 C 254.8125 203.261719 254.433594 202.742188 253.894531 202.128906 C 253.703125 202.449219 253.511719 202.640625 253.46875 202.863281 C 253.074219 204.8125 252.746094 206.777344 252.328125 208.71875 C 251.933594 210.53125 251.277344 212.265625 250.394531 213.902344 C 249.988281 214.652344 249.960938 215.304688 250.28125 216.117188 C 251.648438 219.550781 252.949219 223.011719 254.257812 226.46875 C 254.460938 226.996094 254.628906 227.546875 254.722656 228.101562 C 254.8125 228.621094 254.464844 229.015625 253.980469 229.265625 C 253.070312 229.738281 251.113281 229.195312 250.496094 228.292969 C 250.382812 228.125 250.238281 227.855469 250.300781 227.710938 C 250.621094 226.921875 250.105469 226.363281 249.839844 225.71875 C 248.726562 223.023438 247.652344 220.316406 246.554688 217.617188 C 246.289062 216.964844 245.992188 216.324219 245.671875 215.59375 C 243.78125 215.554688 242.046875 216.140625 240.3125 216.371094 C 239.960938 218.441406 239.925781 232.296875 240.234375 234.429688 C 240.683594 234.90625 241.277344 234.800781 241.832031 234.804688 C 245.113281 234.820312 248.386719 234.820312 251.664062 234.824219 C 255.726562 234.828125 259.789062 234.828125 263.847656 234.84375 C 264.550781 234.847656 265.253906 234.890625 266.027344 234.921875 C 266.425781 235.78125 266.089844 236.667969 266.375 237.566406 C 266.691406 237.8125 267.09375 238.09375 267.449219 238.421875 C 268.398438 239.296875 268.636719 240.351562 268.101562 241.519531 C 267.808594 242.164062 267.453125 242.792969 267.039062 243.363281 C 266.324219 244.339844 265.59375 245.308594 264.78125 246.203125 C 263.96875 247.09375 263.046875 247.882812 262.015625 248.871094 C 261.980469 251.023438 261.949219 253.351562 261.910156 255.691406 C 261.074219 256.101562 260.335938 256.039062 259.53125 255.8125 C 259.054688 254.171875 259.609375 252.5 259.121094 250.832031 C 258.238281 250.808594 257.503906 251.136719 256.738281 251.664062 C 256.6875 252.992188 256.636719 254.328125 256.585938 255.601562 C 255.332031 256.089844 255.328125 256.101562 253.980469 255.675781 C 253.917969 254.535156 253.847656 253.355469 253.777344 252.070312 C 253.335938 252.015625 253 251.945312 252.660156 251.933594 C 252.3125 251.925781 251.960938 251.96875 251.5625 251.992188 C 250.863281 253.175781 251.539062 254.527344 251.117188 255.699219 C 249.847656 256 249.847656 256 248.492188 255.660156 C 248.457031 254.238281 248.421875 252.765625 248.378906 251.253906 C 247.65625 250.75 246.9375 250.367188 245.96875 250.199219 C 245.535156 252.09375 246.007812 253.953125 245.667969 255.71875 C 244.902344 256.125 244.210938 256.03125 243.371094 255.851562 C 243.300781 255.421875 243.160156 254.953125 243.15625 254.492188 C 243.132812 252.285156 243.148438 250.082031 243.148438 247.839844 C 242.414062 247.046875 241.695312 246.265625 240.992188 245.503906 C 240.449219 245.589844 240.5 245.984375 240.496094 246.320312 C 240.484375 248.882812 240.484375 251.445312 240.484375 254.007812 C 240.484375 254.5625 240.484375 255.121094 240.484375 255.683594 C 239.539062 256.117188 238.734375 256.066406 237.820312 255.765625 C 237.59375 254.835938 237.71875 253.914062 237.703125 253.007812 C 237.683594 252.152344 237.710938 251.300781 237.699219 250.445312 C 237.6875 249.550781 237.773438 248.644531 237.5625 247.59375 C 236.484375 247.941406 235.894531 248.65625 235.082031 249.257812 C 235.082031 251.351562 235.082031 253.480469 235.082031 255.503906 C 234.289062 256.277344 233.484375 255.878906 232.632812 256.003906 C 232.519531 255.539062 232.359375 255.152344 232.34375 254.757812 C 232.300781 253.832031 232.347656 252.90625 232.320312 251.984375 C 232.308594 251.648438 232.195312 251.320312 232.101562 250.847656 C 231.324219 251.027344 230.65625 251.1875 229.976562 251.347656 C 229.460938 252.808594 229.953125 254.265625 229.597656 255.691406 C 228.785156 256.152344 227.988281 256.035156 227.050781 255.789062 C 226.992188 254.414062 226.929688 253.089844 226.867188 251.726562 C 226.046875 251.371094 225.3125 251.371094 224.492188 251.507812 C 224.070312 252.882812 224.464844 254.253906 224.214844 255.652344 C 223.402344 256.21875 222.546875 256.066406 221.542969 255.691406 C 221.542969 253.90625 221.542969 252.144531 221.542969 250.292969 C 220.769531 249.828125 220.050781 249.394531 219.433594 249.023438 C 218.816406 249.203125 218.863281 249.59375 218.859375 249.933594 C 218.851562 251.214844 218.863281 252.492188 218.855469 253.773438 C 218.855469 254.410156 218.816406 255.039062 218.796875 255.621094 C 217.980469 256.207031 217.234375 255.949219 216.375 255.863281 C 216.316406 255.363281 216.226562 254.957031 216.222656 254.550781 C 216.210938 252.277344 216.160156 249.996094 216.242188 247.722656 C 216.289062 246.371094 215.875 245.378906 214.707031 244.714844 C 213.703125 245.089844 213.550781 245.890625 213.550781 246.792969 C 213.5625 249.214844 213.558594 251.632812 213.554688 254.050781 C 213.554688 254.605469 213.519531 255.160156 213.496094 255.746094 C 212.566406 256.097656 211.761719 256.074219 210.828125 255.746094 C 210.597656 253.390625 210.886719 251.050781 210.679688 248.65625 C 209.589844 248.601562 208.972656 249.316406 208.1875 249.8125 C 207.953125 251.796875 208.242188 253.785156 208.027344 255.6875 C 207.164062 256.183594 206.417969 255.945312 205.617188 255.90625 C 205.136719 254.292969 205.683594 252.6875 205.226562 251.179688 C 204.507812 250.785156 203.839844 251.007812 203.089844 251.1875 C 202.390625 252.636719 203.144531 254.28125 202.585938 255.796875 C 202.285156 255.871094 202.015625 255.984375 201.75 255.984375 C 201.265625 255.984375 200.777344 255.917969 200.207031 255.871094 C 199.757812 254.296875 200.273438 252.707031 199.886719 251.1875 C 199.15625 250.8125 198.429688 250.59375 197.578125 250.652344 C 197.074219 252.332031 197.597656 254.0625 197.246094 255.773438 C 196.355469 256.054688 195.554688 256.09375 194.613281 255.667969 C 194.613281 253.476562 194.613281 251.285156 194.613281 249.191406 C 193.835938 248.445312 193.140625 247.878906 192.152344 247.453125 C 191.757812 248.441406 191.964844 249.355469 191.929688 250.242188 C 191.894531 251.164062 191.941406 252.09375 191.917969 253.015625 C 191.894531 253.925781 192.054688 254.851562 191.757812 255.757812 C 191.035156 256.128906 190.34375 256.03125 189.5 255.851562 C 189.425781 255.425781 189.28125 254.960938 189.277344 254.496094 C 189.25 251.722656 189.261719 248.949219 189.25 246.171875 C 189.246094 245.699219 189.1875 245.222656 189.152344 244.695312 C 187.289062 245.671875 186.640625 246.605469 186.617188 248.292969 C 186.605469 249.503906 186.617188 250.710938 186.617188 251.921875 C 186.617188 253.132812 186.617188 254.335938 186.617188 255.515625 C 185.460938 256.074219 185.460938 256.074219 183.894531 255.660156 C 183.679688 253.667969 183.929688 251.605469 183.757812 249.53125 C 182.726562 249.296875 182.136719 250.070312 181.222656 250.265625 C 181.222656 252.101562 181.222656 253.863281 181.222656 255.605469 C 180.292969 256.160156 179.492188 256.019531 178.53125 255.8125 C 178.484375 254.28125 178.445312 252.816406 178.402344 251.402344 C 177.175781 251.046875 177.175781 251.042969 175.996094 251.429688 C 175.460938 252.800781 176.132812 254.359375 175.558594 255.816406 C 174.773438 256.066406 174.035156 256.082031 173.144531 255.761719 C 173.109375 254.125 173.070312 252.515625 173.035156 250.835938 C 172.265625 250.492188 171.582031 250.160156 170.628906 250.1875 C 170.164062 251.992188 170.617188 253.84375 170.351562 255.671875 C 169.554688 256.167969 168.738281 256.027344 167.785156 255.800781 C 167.355469 253.269531 167.847656 250.714844 167.523438 248.097656 C 166.871094 247.550781 166.175781 246.96875 165.550781 246.441406 C 164.949219 246.632812 164.996094 247.019531 164.992188 247.359375 C 164.984375 249.425781 164.988281 251.484375 164.988281 253.550781 C 164.988281 254.253906 164.988281 254.957031 164.988281 255.609375 C 163.835938 256.03125 163.835938 256.050781 162.480469 255.753906 C 162.4375 255.402344 162.339844 255 162.339844 254.597656 C 162.320312 252.464844 162.339844 250.332031 162.324219 248.195312 C 162.320312 247.722656 162.261719 247.253906 162.210938 246.613281 C 161.132812 246.984375 160.625 247.800781 159.785156 248.351562 C 159.523438 250.710938 159.789062 253.132812 159.648438 255.570312 C 158.816406 256.25 157.953125 256.03125 157.007812 255.785156 C 156.699219 254.042969 157.039062 252.332031 156.796875 250.628906 C 155.796875 250.421875 155.121094 250.988281 154.285156 251.269531 C 154.242188 252.808594 154.207031 254.28125 154.167969 255.808594 C 153.785156 255.890625 153.519531 255.988281 153.25 255.992188 C 152.765625 255.996094 152.277344 255.945312 151.742188 255.914062 C 151.253906 254.546875 151.808594 253.148438 151.34375 251.78125 C 150.625 251.421875 149.882812 251.453125 148.976562 251.671875 C 148.90625 253.007812 148.84375 254.335938 148.777344 255.625 C 147.636719 256.023438 147.636719 256.039062 146.308594 255.761719 C 145.910156 254.15625 146.367188 252.441406 146.042969 250.707031 C 145.5 250.421875 144.945312 250.113281 144.375 249.839844 C 144.195312 249.753906 143.96875 249.777344 143.652344 249.730469 C 143.28125 251.714844 143.664062 253.703125 143.433594 255.628906 C 142.300781 256.078125 142.296875 256.097656 140.851562 255.738281 C 140.503906 254.839844 140.742188 253.84375 140.699219 252.875 C 140.660156 251.953125 140.691406 251.027344 140.691406 250.101562 C 140.691406 249.109375 140.691406 248.117188 140.691406 247.164062 C 139.898438 246.417969 139.183594 245.746094 138.445312 245.050781 C 138.007812 245.128906 138.058594 245.519531 138.058594 245.859375 C 138.050781 248.417969 138.054688 250.980469 138.054688 253.542969 C 138.054688 254.25 138.054688 254.953125 138.054688 255.613281 C 137.203125 256.152344 136.460938 256.027344 135.566406 255.835938 C 135.25 254.570312 135.453125 253.292969 135.40625 252.042969 C 135.355469 250.789062 135.476562 249.53125 135.300781 248.152344 C 134.214844 248.355469 133.765625 249.207031 132.972656 249.484375 C 132.46875 251.5625 132.988281 253.640625 132.671875 255.640625 C 131.507812 256.023438 131.507812 256.023438 130.082031 255.738281 C 129.699219 254.417969 130.203125 252.960938 129.78125 251.566406 C 128.933594 251.324219 128.230469 251.65625 127.382812 252.015625 C 127.355469 252.597656 127.324219 253.222656 127.296875 253.847656 C 127.269531 254.472656 127.246094 255.105469 127.21875 255.792969 C 126.394531 256.097656 125.652344 256.054688 124.835938 255.898438 C 124.261719 254.652344 124.917969 253.300781 124.347656 251.96875 C 123.734375 251.898438 123.046875 251.820312 122.222656 251.722656 C 122.113281 252.191406 121.972656 252.574219 121.945312 252.964844 C 121.882812 253.878906 121.996094 254.804688 121.832031 255.683594 C 121 256.148438 120.25 256.039062 119.378906 255.847656 C 118.972656 254.160156 119.398438 252.445312 119.132812 250.734375 C 118.546875 250.023438 117.746094 249.648438 116.742188 249.289062 C 116.324219 251.519531 116.753906 253.640625 116.492188 255.6875 C 115.203125 256.011719 115.203125 256.011719 113.851562 255.675781 C 113.820312 255.238281 113.761719 254.761719 113.761719 254.28125 C 113.753906 252.007812 113.742188 249.726562 113.769531 247.453125 C 113.777344 246.695312 113.535156 246.101562 113.050781 245.519531 C 112.277344 244.59375 111.570312 243.609375 110.875 242.621094 C 109.742188 241.011719 109.550781 239.175781 111.667969 237.882812 C 111.78125 237.8125 111.859375 237.679688 112.027344 237.5 C 112.0625 236.75 112.101562 235.917969 112.148438 234.957031 C 114.09375 234.746094 115.933594 234.875 117.765625 234.851562 C 119.621094 234.824219 121.472656 234.839844 123.324219 234.835938 C 125.105469 234.832031 126.886719 234.824219 128.667969 234.824219 C 130.519531 234.824219 132.371094 234.828125 134.222656 234.828125 C 136.074219 234.828125 137.921875 234.828125 139.835938 234.828125 C 139.96875 234.421875 140.164062 234.101562 140.164062 233.78125 C 140.171875 228.515625 140.15625 223.25 140.136719 217.984375 C 140.136719 217.851562 140.050781 217.722656 139.957031 217.445312 C 139.265625 217.085938 138.382812 217.246094 137.566406 217.09375 C 136.808594 216.949219 136.03125 216.90625 135.179688 216.8125 C 134.949219 217.347656 134.726562 217.777344 134.582031 218.234375 C 133.738281 220.875 132.902344 223.519531 132.09375 226.167969 C 131.84375 226.980469 131.691406 227.816406 131.507812 228.648438 C 131.339844 229.433594 131.144531 230.203125 130.257812 230.472656 C 129.347656 230.75 128.304688 230.320312 127.675781 229.394531 C 127.523438 229.175781 127.402344 228.851562 127.449219 228.609375 C 127.652344 227.578125 127.890625 226.542969 128.183594 225.53125 C 128.953125 222.867188 129.757812 220.21875 130.550781 217.558594 C 130.648438 217.226562 130.734375 216.886719 130.832031 216.511719 C 130.53125 216.082031 130.253906 215.675781 129.957031 215.285156 C 128.613281 213.511719 128.335938 211.535156 128.847656 209.417969 C 128.980469 208.867188 129.105469 208.300781 129.335938 207.785156 C 129.675781 207.023438 129.464844 206.445312 128.964844 205.835938 C 127.710938 204.328125 126.238281 203.140625 124.386719 202.449219 C 124.0625 202.324219 123.730469 202.222656 123.316406 202.078125 C 123.507812 201.710938 123.65625 201.433594 123.851562 201.0625 C 122.753906 200.0625 121.164062 200.417969 119.730469 199.683594 C 120.453125 199.304688 120.988281 199.015625 121.566406 198.710938 C 121.136719 197.703125 119.992188 197.730469 119.304688 196.925781 C 119.832031 196.820312 120.28125 196.648438 120.730469 196.65625 C 121.546875 196.667969 122.027344 196.191406 122.503906 195.652344 Z M 228.070312 205.671875 C 227.539062 205.042969 227.003906 204.285156 226.339844 203.671875 C 225.667969 203.046875 224.878906 202.542969 224.125 202.015625 C 223.402344 201.511719 222.417969 201.496094 221.710938 200.957031 C 221.929688 200.527344 222.453125 200.472656 222.242188 199.824219 C 221.023438 199.5 219.714844 199.152344 218.390625 198.800781 C 218.742188 198.003906 219.871094 198.335938 219.96875 197.414062 C 219.433594 196.761719 218.488281 196.6875 217.726562 195.859375 C 218.582031 195.757812 219.1875 195.621094 219.796875 195.628906 C 220.386719 195.640625 220.40625 195.171875 220.683594 194.769531 C 221.371094 195.09375 222.0625 195.4375 222.78125 195.734375 C 223.003906 195.828125 223.414062 195.894531 223.515625 195.78125 C 223.820312 195.433594 224.125 195.433594 224.4375 195.640625 C 224.972656 195.992188 225.464844 196.398438 225.996094 196.761719 C 226.28125 196.957031 226.613281 197.277344 226.894531 197.25 C 227.785156 197.144531 228.226562 197.703125 228.605469 198.289062 C 229.261719 199.300781 229.84375 200.355469 230.449219 201.402344 C 230.6875 201.8125 230.90625 202.238281 231.105469 202.609375 C 233.347656 202.046875 235.453125 201.515625 237.535156 200.996094 C 237.597656 200.679688 237.671875 200.472656 237.671875 200.265625 C 237.675781 194.078125 237.675781 187.890625 237.65625 181.703125 C 237.65625 181.390625 237.515625 181.074219 237.425781 180.722656 C 233.9375 181.5 231.269531 180.636719 229.578125 177.0625 C 229.367188 177.453125 229.253906 177.636719 229.171875 177.835938 C 227.535156 181.792969 220.964844 182.167969 218.730469 178.355469 C 218.605469 178.140625 218.371094 177.992188 218.164062 177.792969 C 217.960938 178.039062 217.820312 178.199219 217.6875 178.363281 C 215.351562 181.289062 211.421875 181.214844 209.160156 178.199219 C 208.917969 177.871094 208.660156 177.554688 208.386719 177.203125 C 206.972656 179.476562 206.972656 179.476562 204.699219 180.90625 C 204.1875 183.238281 203.851562 185.679688 203.628906 188.257812 C 204.898438 188.457031 206.046875 188.785156 207.023438 187.738281 C 207.734375 188.710938 207.757812 188.675781 208.863281 189.402344 C 209.566406 189.867188 210.222656 190.425781 210.839844 191.003906 C 211.460938 191.585938 212.015625 192.242188 212.585938 192.875 C 212.660156 192.957031 212.671875 193.09375 212.746094 193.308594 C 212.234375 193.222656 211.78125 193.148438 211.269531 193.058594 C 211.269531 193.527344 211.269531 193.875 211.269531 194.292969 C 210.828125 194.023438 210.496094 193.816406 209.976562 193.5 C 209.878906 194.558594 209.816406 195.394531 209.71875 196.230469 C 209.53125 197.773438 209.792969 199.183594 210.753906 200.460938 C 211.179688 201.023438 211.527344 201.671875 211.757812 202.332031 C 212.21875 203.644531 211.632812 204.699219 210.695312 205.570312 C 209.863281 206.339844 208.898438 206.410156 207.757812 205.601562 C 206.84375 204.953125 206.097656 204.070312 205.269531 203.300781 C 205.039062 203.085938 204.773438 202.902344 204.417969 202.617188 C 204.320312 203.085938 204.265625 203.363281 204.203125 203.636719 C 203.710938 205.925781 203.332031 208.25 202.679688 210.496094 C 202.324219 211.714844 202.265625 212.800781 202.578125 214.011719 C 204.1875 220.277344 205.742188 226.546875 207.328125 232.816406 C 207.484375 233.421875 207.722656 234.007812 207.957031 234.714844 C 208.703125 234.75 209.402344 234.808594 210.101562 234.8125 C 214.445312 234.824219 218.792969 234.824219 223.136719 234.824219 C 227.339844 234.824219 231.539062 234.832031 235.742188 234.816406 C 236.359375 234.8125 237.035156 234.980469 237.609375 234.375 C 237.609375 228.476562 237.609375 222.515625 237.609375 216.585938 C 236.050781 215.96875 235.589844 215.90625 233.53125 216.039062 C 233.398438 216.390625 233.226562 216.773438 233.113281 217.175781 C 232.082031 220.863281 230.613281 224.429688 229.84375 228.199219 C 229.585938 229.445312 228.558594 229.917969 227.394531 229.375 C 226.964844 229.175781 226.546875 228.851562 226.238281 228.484375 C 226.042969 228.253906 225.9375 227.816406 226.003906 227.515625 C 226.359375 225.929688 226.746094 224.351562 227.1875 222.792969 C 227.773438 220.742188 228.402344 218.707031 229.042969 216.675781 C 229.300781 215.859375 229.261719 215.152344 228.644531 214.507812 C 228.402344 214.253906 228.226562 213.933594 228.042969 213.628906 C 227.199219 212.234375 226.824219 210.761719 227.234375 209.136719 C 227.492188 208.101562 227.734375 207.066406 228.070312 205.671875 Z M 176.054688 196.277344 C 175.300781 191.121094 174.578125 186.207031 173.839844 181.289062 C 173.800781 181.046875 173.59375 180.824219 173.5 180.65625 C 172.320312 180.78125 171.277344 180.941406 170.222656 180.980469 C 169.203125 181.019531 168.226562 180.667969 167.421875 180.074219 C 166.589844 179.460938 165.886719 178.671875 165.085938 177.917969 C 164.898438 178.144531 164.703125 178.351562 164.546875 178.582031 C 162.46875 181.683594 157.476562 181.757812 155.171875 179.1875 C 154.90625 178.890625 154.585938 178.648438 154.355469 178.441406 C 153.363281 179.160156 152.554688 179.859375 151.644531 180.382812 C 150.707031 180.914062 149.632812 181.050781 148.542969 181.023438 C 147.449219 181 146.398438 180.792969 145.484375 180.222656 C 144.605469 179.679688 143.8125 178.996094 142.804688 178.238281 C 142.714844 178.871094 142.59375 179.335938 142.589844 179.796875 C 142.570312 186.765625 142.5625 193.734375 142.566406 200.703125 C 142.566406 201.105469 142.6875 201.507812 142.746094 201.863281 C 144.082031 202.136719 144.082031 202.121094 145.203125 201.78125 C 145.25 201.269531 145.289062 200.714844 145.351562 200.15625 C 145.65625 197.496094 146.476562 195.03125 148.132812 192.882812 C 150.121094 190.3125 152.652344 188.777344 155.988281 188.945312 C 156.804688 188.988281 157.296875 188.59375 157.945312 188.039062 C 158.117188 188.957031 158.628906 189.445312 159.390625 189.769531 C 160.386719 190.195312 161.15625 190.945312 161.859375 191.765625 C 162.316406 192.304688 162.832031 192.800781 163.3125 193.324219 C 163.386719 193.402344 163.398438 193.53125 163.484375 193.742188 C 162.964844 193.6875 162.515625 193.636719 162.046875 193.589844 C 162.046875 194.023438 162.046875 194.351562 162.046875 194.738281 C 161.640625 194.503906 161.292969 194.304688 160.789062 194.015625 C 160.660156 195.058594 160.59375 195.964844 160.429688 196.851562 C 160.179688 198.191406 160.511719 199.375 161.230469 200.496094 C 161.613281 201.09375 161.988281 201.699219 162.320312 202.324219 C 162.976562 203.554688 162.652344 204.667969 161.820312 205.675781 C 160.96875 206.707031 159.953125 206.949219 158.792969 206.230469 C 157.957031 205.71875 157.238281 205.007812 156.5 204.351562 C 156.09375 203.992188 155.75 203.5625 155.226562 202.992188 C 154.730469 205.382812 154.398438 207.558594 153.808594 209.65625 C 153.199219 211.828125 152.332031 213.929688 151.519531 216.226562 C 151.597656 216.449219 151.722656 216.855469 151.871094 217.25 C 153.167969 220.632812 154.472656 224.011719 155.769531 227.394531 C 155.945312 227.859375 156.132812 228.324219 156.261719 228.804688 C 156.40625 229.328125 156.1875 229.804688 155.738281 230.089844 C 154.765625 230.707031 153.804688 230.425781 152.890625 229.976562 C 152.175781 229.628906 151.542969 229.160156 151.863281 228.148438 C 151.933594 227.921875 151.785156 227.59375 151.679688 227.335938 C 150.328125 224.054688 148.96875 220.773438 147.609375 217.492188 C 147.476562 217.171875 147.316406 216.863281 147.074219 216.34375 C 145.632812 216.757812 144.140625 216.722656 142.625 217.394531 C 142.488281 219.273438 142.550781 221.1875 142.53125 223.101562 C 142.507812 225.019531 142.460938 226.941406 142.519531 228.859375 C 142.582031 230.75 142.335938 232.667969 142.761719 234.617188 C 143.257812 234.683594 143.671875 234.769531 144.082031 234.78125 C 150.613281 235.007812 167.941406 234.898438 169.980469 234.617188 C 170.132812 234.269531 170.351562 233.898438 170.460938 233.496094 C 172.730469 225.0625 174.984375 216.621094 177.25 208.183594 C 177.492188 207.273438 177.488281 206.367188 177.410156 205.4375 C 177.332031 204.503906 176.953125 203.78125 176.160156 203.339844 C 175.046875 202.722656 173.886719 202.191406 172.753906 201.605469 C 172.648438 201.550781 172.601562 201.390625 172.527344 201.277344 C 172.746094 201.035156 173.1875 200.910156 172.914062 200.316406 C 172.398438 200.15625 171.808594 199.945312 171.207031 199.789062 C 170.535156 199.617188 169.859375 199.488281 169.183594 199.34375 C 169.414062 198.453125 170.660156 198.878906 170.695312 197.941406 C 170.21875 197.222656 169.242188 197.179688 168.636719 196.425781 C 169.617188 196.191406 170.480469 196.113281 171.222656 195.773438 C 171.664062 195.570312 172.019531 195.5 172.402344 195.671875 C 173.105469 195.988281 173.78125 196.371094 174.539062 196.761719 C 174.570312 196.476562 174.585938 196.292969 174.613281 196.050781 C 175.003906 196.109375 175.40625 196.175781 176.054688 196.277344 Z M 122.246094 239.152344 C 121.851562 240.875 121.804688 243.722656 122.117188 245.746094 C 123.359375 246.402344 123.359375 246.402344 124.433594 246.128906 C 124.753906 243.699219 124.6875 240.6875 124.265625 239.152344 C 123.597656 239.152344 122.910156 239.152344 122.246094 239.152344 Z M 151.304688 246.097656 C 151.628906 243.667969 151.605469 240.902344 151.277344 239.214844 C 150.539062 239.023438 149.796875 238.941406 148.90625 239.359375 C 148.929688 241.523438 148.6875 243.691406 149.042969 245.980469 C 149.847656 246.019531 150.527344 246.054688 151.304688 246.097656 Z M 178.066406 245.535156 C 178.597656 244.082031 178.625 240.882812 178.109375 239.152344 C 177.445312 239.152344 176.761719 239.152344 176.101562 239.152344 C 175.691406 241.027344 175.675781 243.722656 176.058594 245.539062 C 176.707031 245.84375 177.390625 245.691406 178.066406 245.535156 Z M 253.796875 239.214844 C 252.847656 239.039062 252.101562 238.921875 251.421875 239.3125 C 251.105469 241.832031 251.175781 244.902344 251.582031 246.367188 C 252.304688 246.476562 253.050781 246.746094 253.808594 246.136719 C 253.925781 243.882812 253.941406 241.640625 253.796875 239.214844 Z M 129.898438 245.191406 C 129.90625 243.128906 130.113281 241.167969 129.769531 239.253906 C 128.460938 239.007812 128.460938 239.023438 127.464844 239.398438 C 127.15625 241.703125 127.21875 244.671875 127.613281 246.054688 C 128.453125 246.144531 129.089844 245.6875 129.898438 245.191406 Z M 226.695312 245.859375 C 227.078125 244.070312 227.046875 240.660156 226.613281 239.117188 C 225.898438 239.117188 225.144531 238.832031 224.300781 239.453125 C 224.300781 240.375 224.277344 241.355469 224.308594 242.332031 C 224.339844 243.375 224.160156 244.4375 224.476562 245.433594 C 225.1875 245.957031 225.90625 246.113281 226.695312 245.859375 Z M 203.097656 239.183594 C 202.65625 241.089844 202.675781 244.039062 203.109375 245.460938 C 204.273438 245.425781 204.273438 245.425781 205.238281 244.878906 C 205.519531 242.546875 205.476562 240.757812 205.09375 239.164062 C 204.695312 239.128906 204.28125 239.070312 203.859375 239.066406 C 203.59375 239.066406 203.328125 239.144531 203.097656 239.183594 Z M 256.816406 245.726562 C 257.664062 245.21875 258.238281 244.9375 258.734375 244.554688 C 258.988281 244.363281 259.242188 243.992188 259.257812 243.6875 C 259.328125 242.21875 259.476562 240.742188 259.125 239.25 C 258.316406 238.988281 257.589844 238.96875 256.722656 239.308594 C 256.660156 241.351562 256.53125 243.359375 256.816406 245.726562 Z M 230.015625 245.476562 C 230.863281 245.636719 231.472656 245.152344 232.164062 244.710938 C 232.4375 242.878906 232.421875 241.070312 232.171875 239.289062 C 230.886719 239.007812 230.886719 239.023438 229.894531 239.394531 C 229.609375 241.671875 229.65625 243.996094 230.015625 245.476562 Z M 197.65625 239.152344 C 197.277344 241.011719 197.273438 242.808594 197.625 244.527344 C 198.261719 244.96875 198.929688 245.339844 199.804688 245.257812 C 200.199219 244.261719 200.003906 243.257812 200 242.289062 C 199.992188 241.25 200.242188 240.171875 199.671875 239.0625 C 198.984375 239.089844 198.304688 239.121094 197.65625 239.152344 Z M 156.789062 243.914062 C 156.925781 242.363281 156.917969 240.828125 156.789062 239.238281 C 155.90625 239.003906 155.179688 238.984375 154.398438 239.253906 C 154.105469 240.300781 154.230469 241.296875 154.246094 242.269531 C 154.265625 243.21875 154.042969 244.207031 154.488281 245.257812 C 155.460938 244.984375 156.109375 244.46875 156.789062 243.914062 Z M 170.535156 243.570312 C 171.230469 244.128906 171.859375 244.808594 172.980469 244.6875 C 173.128906 242.847656 173.199219 241.050781 172.90625 239.152344 C 172.078125 239.113281 171.339844 238.832031 170.535156 239.382812 C 170.535156 240.742188 170.535156 242.132812 170.535156 243.570312 Z M 246.007812 239.164062 C 245.703125 240.105469 245.800781 240.953125 245.816406 241.78125 C 245.835938 243.382812 246.445312 244.097656 248.273438 244.710938 C 248.578125 243.824219 248.449219 242.90625 248.421875 242.015625 C 248.390625 241.0625 248.699219 240.046875 248.070312 239.046875 C 247.402344 239.085938 246.722656 239.121094 246.007812 239.164062 Z M 146.003906 244.625 C 146.175781 242.53125 146.316406 240.875 145.957031 239.246094 C 144.628906 239.007812 144.628906 239.027344 143.511719 239.453125 C 143.511719 240.179688 143.527344 240.953125 143.503906 241.730469 C 143.488281 242.34375 143.664062 242.847656 144.15625 243.226562 C 144.652344 243.609375 145.15625 243.984375 146.003906 244.625 Z M 183.703125 242.285156 C 183.851562 241.269531 183.929688 240.242188 183.625 239.179688 C 182.785156 239.035156 182.046875 238.933594 181.28125 239.328125 C 181.078125 240.769531 181.148438 242.164062 181.253906 243.558594 C 181.257812 243.65625 181.417969 243.742188 181.578125 243.90625 C 182.460938 243.644531 183.035156 242.933594 183.703125 242.285156 Z M 119.109375 239.207031 C 118.136719 239.050781 117.386719 238.875 116.570312 239.441406 C 116.710938 240.296875 116.253906 241.261719 116.964844 242.046875 C 117.542969 242.679688 117.964844 243.574219 119.109375 243.660156 C 119.109375 242.15625 119.109375 240.769531 119.109375 239.207031 Z M 221.386719 243.714844 C 221.503906 241.914062 221.699219 240.53125 221.242188 239.070312 C 220.6875 239.070312 220.195312 239.054688 219.707031 239.082031 C 219.507812 239.089844 219.3125 239.195312 219.0625 239.277344 C 218.347656 241.363281 219.792969 242.332031 221.386719 243.714844 Z M 208.207031 243.039062 C 209.1875 242.792969 209.539062 242.148438 210.046875 241.699219 C 210.824219 241.007812 210.921875 240.183594 210.546875 239.179688 C 209.777344 239.019531 209.046875 238.980469 208.199219 239.269531 C 208.070312 240.492188 208.066406 241.660156 208.207031 243.039062 Z M 135.195312 239.316406 C 134 239.011719 134 239.011719 132.765625 239.382812 C 132.765625 240.101562 132.742188 240.871094 132.777344 241.632812 C 132.789062 241.855469 132.964844 242.066406 133.171875 242.5 C 133.972656 241.328125 134.84375 240.511719 135.195312 239.316406 Z M 235.125 242.097656 C 236.308594 241.097656 237.03125 240.347656 237.265625 239.144531 C 236.445312 239.0625 235.757812 238.875 235.125 239.375 C 235.125 240.167969 235.125 240.921875 235.125 242.097656 Z M 194.445312 239.058594 C 193.726562 239.101562 193.191406 239.136719 192.523438 239.175781 C 192.832031 240.277344 193.457031 240.941406 194.324219 241.707031 C 194.675781 240.773438 194.585938 240.050781 194.445312 239.058594 Z M 263.300781 239.199219 C 261.960938 239.171875 261.960938 239.171875 262.160156 240.640625 C 262.828125 240.199219 262.828125 240.199219 263.300781 239.199219 Z M 167.457031 240.410156 C 167.5 239.945312 167.589844 239.683594 167.539062 239.449219 C 167.46875 239.136719 167.1875 239.023438 166.917969 239.195312 C 166.808594 239.269531 166.730469 239.566406 166.789062 239.679688 C 166.902344 239.902344 167.125 240.066406 167.457031 240.410156 Z M 160.691406 239.328125 C 160.476562 239.25 160.28125 239.105469 160.144531 239.144531 C 159.988281 239.195312 159.808594 239.386719 159.765625 239.546875 C 159.726562 239.71875 159.839844 239.925781 159.890625 240.117188 C 160.058594 240.058594 160.273438 240.050781 160.386719 239.9375 C 160.519531 239.804688 160.570312 239.582031 160.691406 239.328125 Z M 160.691406 239.328125 " fill-opacity="1" fill-rule="nonzero"/></g><path fill="#000000" d="M 122.503906 195.636719 C 122.40625 195.710938 122.316406 195.796875 122.210938 195.863281 C 122.164062 195.890625 122.097656 195.886719 122.039062 195.894531 C 122.078125 195.847656 122.105469 195.78125 122.15625 195.757812 C 122.261719 195.707031 122.371094 195.679688 122.484375 195.636719 C 122.488281 195.632812 122.503906 195.636719 122.503906 195.636719 Z M 122.503906 195.636719 " fill-opacity="1" fill-rule="nonzero"/><g fill="#000000" fill-opacity="1"><g transform="translate(56.542016, 280.120813)"><g><path d="M 0.75 -13.546875 C 0.75 -17.460938 2.082031 -20.773438 4.75 -23.484375 C 7.414062 -26.191406 10.628906 -27.546875 14.390625 -27.546875 C 18.179688 -27.546875 21.398438 -26.195312 24.046875 -23.5 C 26.691406 -20.800781 28.015625 -17.484375 28.015625 -13.546875 C 28.015625 -9.585938 26.710938 -6.257812 24.109375 -3.5625 C 21.503906 -0.863281 18.265625 0.484375 14.390625 0.484375 C 10.441406 0.484375 7.179688 -0.851562 4.609375 -3.53125 C 2.035156 -6.207031 0.75 -9.546875 0.75 -13.546875 Z M 7.40625 -13.546875 C 7.40625 -12.117188 7.625 -10.820312 8.0625 -9.65625 C 8.5 -8.488281 9.265625 -7.5 10.359375 -6.6875 C 11.453125 -5.882812 12.796875 -5.484375 14.390625 -5.484375 C 16.691406 -5.484375 18.425781 -6.269531 19.59375 -7.84375 C 20.757812 -9.414062 21.34375 -11.316406 21.34375 -13.546875 C 21.34375 -15.753906 20.75 -17.648438 19.5625 -19.234375 C 18.375 -20.816406 16.648438 -21.609375 14.390625 -21.609375 C 12.160156 -21.609375 10.4375 -20.816406 9.21875 -19.234375 C 8.007812 -17.648438 7.40625 -15.753906 7.40625 -13.546875 Z M 7.40625 -13.546875 "/></g></g></g><g fill="#000000" fill-opacity="1"><g transform="translate(111.538423, 280.120813)"><g><path d="M 16.359375 -5.578125 C 17.304688 -5.578125 18.222656 -5.71875 19.109375 -6 C 19.992188 -6.28125 20.644531 -6.554688 21.0625 -6.828125 L 21.671875 -7.25 L 24.296875 -2 C 24.210938 -1.9375 24.09375 -1.847656 23.9375 -1.734375 C 23.789062 -1.628906 23.4375 -1.425781 22.875 -1.125 C 22.320312 -0.832031 21.726562 -0.578125 21.09375 -0.359375 C 20.457031 -0.140625 19.625 0.0507812 18.59375 0.21875 C 17.5625 0.394531 16.503906 0.484375 15.421875 0.484375 C 12.898438 0.484375 10.515625 -0.128906 8.265625 -1.359375 C 6.015625 -2.597656 4.195312 -4.296875 2.8125 -6.453125 C 1.4375 -8.617188 0.75 -10.960938 0.75 -13.484375 C 0.75 -15.378906 1.15625 -17.203125 1.96875 -18.953125 C 2.78125 -20.703125 3.859375 -22.195312 5.203125 -23.4375 C 6.546875 -24.6875 8.113281 -25.679688 9.90625 -26.421875 C 11.695312 -27.171875 13.535156 -27.546875 15.421875 -27.546875 C 17.160156 -27.546875 18.769531 -27.335938 20.25 -26.921875 C 21.726562 -26.503906 22.773438 -26.09375 23.390625 -25.6875 L 24.296875 -25.0625 L 21.671875 -19.8125 C 21.523438 -19.9375 21.296875 -20.09375 20.984375 -20.28125 C 20.679688 -20.46875 20.070312 -20.710938 19.15625 -21.015625 C 18.238281 -21.328125 17.304688 -21.484375 16.359375 -21.484375 C 14.878906 -21.484375 13.546875 -21.238281 12.359375 -20.75 C 11.179688 -20.269531 10.25 -19.632812 9.5625 -18.84375 C 8.875 -18.0625 8.347656 -17.21875 7.984375 -16.3125 C 7.617188 -15.40625 7.4375 -14.484375 7.4375 -13.546875 C 7.4375 -11.492188 8.207031 -9.648438 9.75 -8.015625 C 11.289062 -6.390625 13.492188 -5.578125 16.359375 -5.578125 Z M 16.359375 -5.578125 "/></g></g></g><g fill="#000000" fill-opacity="1"><g transform="translate(162.469207, 280.120813)"><g><path d="M 1.96875 -27.0625 L 10.359375 -27.0625 C 12.898438 -27.0625 14.921875 -26.519531 16.421875 -25.4375 C 17.929688 -24.351562 18.6875 -22.597656 18.6875 -20.171875 C 18.6875 -17.460938 17.5625 -15.523438 15.3125 -14.359375 C 19.164062 -13.679688 21.09375 -11.410156 21.09375 -7.546875 C 21.09375 -5.265625 20.300781 -3.4375 18.71875 -2.0625 C 17.144531 -0.6875 14.984375 0 12.234375 0 L 1.96875 0 Z M 8.140625 -16.46875 L 8.625 -16.46875 C 10 -16.46875 11.023438 -16.707031 11.703125 -17.1875 C 12.378906 -17.664062 12.71875 -18.453125 12.71875 -19.546875 C 12.71875 -21.378906 11.351562 -22.296875 8.625 -22.296875 L 8.140625 -22.296875 Z M 8.140625 -4.75 L 10.0625 -4.75 C 13.082031 -4.75 14.59375 -5.753906 14.59375 -7.765625 C 14.59375 -8.972656 14.210938 -9.835938 13.453125 -10.359375 C 12.703125 -10.890625 11.570312 -11.15625 10.0625 -11.15625 L 8.140625 -11.15625 Z M 8.140625 -4.75 "/></g></g></g><g fill="#000000" fill-opacity="1"><g transform="translate(210.547504, 280.120813)"><g><path d="M 11.9375 -27.546875 C 13.40625 -27.546875 14.835938 -27.332031 16.234375 -26.90625 C 17.628906 -26.476562 18.664062 -26.054688 19.34375 -25.640625 L 20.328125 -24.984375 L 17.84375 -20.078125 C 17.644531 -20.203125 17.367188 -20.367188 17.015625 -20.578125 C 16.671875 -20.785156 16.015625 -21.0625 15.046875 -21.40625 C 14.085938 -21.757812 13.191406 -21.9375 12.359375 -21.9375 C 11.335938 -21.9375 10.546875 -21.71875 9.984375 -21.28125 C 9.429688 -20.84375 9.15625 -20.253906 9.15625 -19.515625 C 9.15625 -19.140625 9.285156 -18.789062 9.546875 -18.46875 C 9.804688 -18.15625 10.253906 -17.816406 10.890625 -17.453125 C 11.523438 -17.097656 12.082031 -16.8125 12.5625 -16.59375 C 13.039062 -16.375 13.785156 -16.046875 14.796875 -15.609375 C 16.546875 -14.867188 18.035156 -13.859375 19.265625 -12.578125 C 20.503906 -11.296875 21.125 -9.847656 21.125 -8.234375 C 21.125 -6.679688 20.84375 -5.320312 20.28125 -4.15625 C 19.726562 -3 18.960938 -2.09375 17.984375 -1.4375 C 17.015625 -0.78125 15.9375 -0.296875 14.75 0.015625 C 13.570312 0.328125 12.296875 0.484375 10.921875 0.484375 C 9.742188 0.484375 8.582031 0.363281 7.4375 0.125 C 6.300781 -0.113281 5.347656 -0.410156 4.578125 -0.765625 C 3.816406 -1.128906 3.128906 -1.484375 2.515625 -1.828125 C 1.910156 -2.179688 1.46875 -2.476562 1.1875 -2.71875 L 0.75 -3.078125 L 3.84375 -8.265625 C 4.101562 -8.046875 4.460938 -7.765625 4.921875 -7.421875 C 5.378906 -7.085938 6.191406 -6.632812 7.359375 -6.0625 C 8.535156 -5.5 9.570312 -5.21875 10.46875 -5.21875 C 13.0625 -5.21875 14.359375 -6.101562 14.359375 -7.875 C 14.359375 -8.238281 14.265625 -8.578125 14.078125 -8.890625 C 13.898438 -9.210938 13.570312 -9.53125 13.09375 -9.84375 C 12.625 -10.164062 12.207031 -10.421875 11.84375 -10.609375 C 11.488281 -10.796875 10.898438 -11.078125 10.078125 -11.453125 C 9.265625 -11.835938 8.660156 -12.128906 8.265625 -12.328125 C 6.628906 -13.140625 5.359375 -14.148438 4.453125 -15.359375 C 3.554688 -16.578125 3.109375 -17.882812 3.109375 -19.28125 C 3.109375 -21.707031 4.003906 -23.691406 5.796875 -25.234375 C 7.597656 -26.773438 9.644531 -27.546875 11.9375 -27.546875 Z M 11.9375 -27.546875 "/></g></g></g><g fill="#000000" fill-opacity="1"><g transform="translate(258.822531, 280.120813)"><g><path d="M 2.53125 -26.203125 C 3.207031 -26.878906 4.015625 -27.21875 4.953125 -27.21875 C 5.890625 -27.21875 6.695312 -26.878906 7.375 -26.203125 C 8.050781 -25.523438 8.390625 -24.71875 8.390625 -23.78125 C 8.390625 -22.84375 8.050781 -22.03125 7.375 -21.34375 C 6.695312 -20.664062 5.890625 -20.328125 4.953125 -20.328125 C 4.015625 -20.328125 3.207031 -20.664062 2.53125 -21.34375 C 1.851562 -22.03125 1.515625 -22.84375 1.515625 -23.78125 C 1.515625 -24.71875 1.851562 -25.523438 2.53125 -26.203125 Z M 1.96875 -16.828125 L 1.96875 0 L 7.765625 0 L 7.765625 -16.828125 Z M 1.96875 -16.828125 "/></g></g></g><g fill="#000000" fill-opacity="1"><g transform="translate(294.966262, 280.120813)"><g><path d="M 1.96875 -27.0625 L 11.640625 -27.0625 C 14.242188 -27.0625 16.363281 -26.363281 18 -24.96875 C 19.644531 -23.582031 20.46875 -21.597656 20.46875 -19.015625 C 20.46875 -17.023438 19.96875 -15.359375 18.96875 -14.015625 C 17.976562 -12.671875 16.628906 -11.726562 14.921875 -11.1875 L 24.234375 0 L 16.390625 0 L 8.140625 -10.6875 L 8.140625 0 L 1.96875 0 Z M 8.140625 -15.046875 L 8.859375 -15.046875 C 9.421875 -15.046875 9.898438 -15.054688 10.296875 -15.078125 C 10.691406 -15.109375 11.140625 -15.1875 11.640625 -15.3125 C 12.140625 -15.445312 12.539062 -15.632812 12.84375 -15.875 C 13.15625 -16.113281 13.421875 -16.460938 13.640625 -16.921875 C 13.859375 -17.378906 13.96875 -17.9375 13.96875 -18.59375 C 13.96875 -19.25 13.859375 -19.804688 13.640625 -20.265625 C 13.421875 -20.722656 13.15625 -21.070312 12.84375 -21.3125 C 12.539062 -21.550781 12.140625 -21.738281 11.640625 -21.875 C 11.140625 -22.007812 10.691406 -22.085938 10.296875 -22.109375 C 9.898438 -22.128906 9.421875 -22.140625 8.859375 -22.140625 L 8.140625 -22.140625 Z M 8.140625 -15.046875 "/></g></g></g></svg>