<svg xmlns="http://www.w3.org/2000/svg" xmlns:xlink="http://www.w3.org/1999/xlink" width="500" zoomAndPan="magnify" viewBox="0 0 375 374.999991" height="500" preserveAspectRatio="xMidYMid meet" version="1.0"><defs><g/><clipPath id="0d1a65fee0"><path d="M 106.105469 84.527344 L 268.855469 84.527344 L 268.855469 237.527344 L 106.105469 237.527344 Z M 106.105469 84.527344 " clip-rule="nonzero"/></clipPath></defs><g clip-path="url(#0d1a65fee0)"><path fill="#ffffff" d="M 122.460938 195.671875 C 123.265625 196.355469 124.21875 196.75 125.160156 197.226562 C 125.261719 196.917969 125.320312 196.734375 125.382812 196.550781 C 125.523438 196.5625 125.691406 196.519531 125.792969 196.589844 C 126.4375 197.027344 127.066406 197.492188 127.707031 197.941406 C 127.933594 198.101562 128.261719 198.429688 128.398438 198.367188 C 129.382812 197.90625 129.683594 198.726562 130.039062 199.253906 C 130.714844 200.25 131.300781 201.3125 131.902344 202.359375 C 132.144531 202.777344 132.332031 203.230469 132.585938 203.753906 C 134.992188 202.773438 137.441406 202.394531 139.953125 202.0625 C 140.027344 201.628906 140.140625 201.292969 140.140625 200.960938 C 140.148438 194.625 140.144531 188.289062 140.140625 181.953125 C 140.140625 181.679688 140.074219 181.40625 140.023438 180.992188 C 138.667969 180.875 137.324219 181.21875 136.023438 180.71875 C 134.699219 180.210938 133.792969 179.269531 132.953125 178.039062 C 132.242188 178.726562 131.714844 179.398438 131.039062 179.855469 C 130.34375 180.320312 129.539062 180.71875 128.730469 180.882812 C 127.84375 181.0625 126.871094 181.066406 125.980469 180.90625 C 125.167969 180.753906 124.347656 180.378906 123.652344 179.917969 C 122.957031 179.457031 122.425781 178.769531 121.800781 178.15625 C 121.351562 178.0625 121.238281 178.476562 121.058594 178.742188 C 119.164062 181.546875 114.785156 181.855469 112.460938 179.363281 C 112.230469 179.117188 111.96875 178.898438 111.671875 178.621094 C 111.183594 179.050781 110.78125 179.449219 110.335938 179.792969 C 107.800781 181.730469 104.066406 181.414062 102 179.101562 C 101.316406 178.339844 100.859375 177.464844 100.859375 176.417969 C 100.851562 174.574219 100.855469 172.726562 100.855469 170.78125 C 119.179688 158.894531 137.492188 147.023438 155.859375 135.109375 C 156.011719 131.4375 155.851562 127.8125 155.941406 124.089844 C 160.449219 119.972656 165.414062 116.445312 170.859375 113.601562 C 176.324219 110.75 182.082031 108.824219 188.253906 108.402344 C 188.714844 107.554688 188.570312 106.757812 188.570312 105.996094 C 188.578125 99.804688 188.570312 93.613281 188.566406 87.417969 C 188.566406 86.644531 188.566406 85.867188 188.566406 85.25 C 189.222656 84.527344 189.902344 84.71875 190.519531 84.714844 C 195.074219 84.707031 199.628906 84.722656 204.1875 84.726562 C 206.890625 84.726562 209.59375 84.710938 212.300781 84.714844 C 212.699219 84.714844 213.148438 84.539062 213.582031 85.027344 C 212.976562 85.710938 212.097656 86.003906 211.363281 86.480469 C 210.648438 86.945312 209.898438 87.359375 209.164062 87.792969 C 208.371094 88.269531 207.574219 88.738281 206.78125 89.21875 C 206.0625 89.65625 205.351562 90.113281 204.507812 90.644531 C 206.042969 91.859375 207.628906 92.640625 209.125 93.558594 C 210.621094 94.46875 212.132812 95.351562 213.65625 96.257812 C 213.226562 96.886719 212.683594 96.632812 212.230469 96.632812 C 205.96875 96.617188 199.703125 96.574219 193.441406 96.5625 C 192.683594 96.5625 191.867188 96.351562 191.199219 96.925781 C 190.863281 98.769531 190.871094 106.375 191.226562 108.300781 C 192.285156 108.460938 193.390625 108.644531 194.496094 108.796875 C 197.976562 109.28125 201.265625 110.382812 204.449219 111.839844 C 210.472656 114.605469 215.679688 118.503906 220.34375 123.183594 C 220.996094 123.839844 221.242188 124.535156 221.230469 125.453125 C 221.183594 128.582031 221.210938 131.710938 221.210938 134.871094 C 221.773438 135.640625 222.605469 136.070312 223.351562 136.597656 C 232.484375 143.027344 241.628906 149.449219 250.765625 155.871094 C 257.402344 160.539062 264.03125 165.210938 270.664062 169.878906 C 271.011719 170.125 271.363281 170.363281 271.710938 170.613281 C 272.144531 170.921875 272.375 171.324219 272.363281 171.878906 C 272.34375 173.304688 272.402344 174.730469 272.324219 176.148438 C 272.207031 178.359375 271.078125 179.894531 268.996094 180.664062 C 266.878906 181.441406 264.929688 181.097656 263.230469 179.609375 C 262.757812 179.199219 262.386719 178.679688 261.902344 178.128906 C 261.25 178.742188 260.710938 179.410156 260.023438 179.84375 C 259.253906 180.324219 258.375 180.714844 257.492188 180.90625 C 256.679688 181.085938 255.769531 181.085938 254.953125 180.914062 C 254.070312 180.726562 253.191406 180.34375 252.421875 179.863281 C 251.722656 179.425781 251.175781 178.742188 250.554688 178.15625 C 247.980469 181.773438 243.578125 182.359375 240.445312 178.015625 C 239.929688 178.042969 239.964844 178.449219 239.960938 178.773438 C 239.933594 181.550781 239.910156 184.328125 239.90625 187.105469 C 239.902344 190.949219 239.914062 194.792969 239.925781 198.636719 C 239.929688 199.34375 239.953125 200.046875 239.964844 200.761719 C 241.132812 201.367188 242.238281 201.144531 243.433594 201.105469 C 243.597656 199.980469 243.738281 198.9375 243.910156 197.898438 C 244.375 195.074219 245.609375 192.65625 247.648438 190.628906 C 249.402344 188.882812 251.476562 187.972656 253.957031 187.972656 C 255.195312 187.972656 255.195312 187.941406 256.03125 187.3125 C 256.523438 187.78125 256.9375 188.386719 257.519531 188.695312 C 258.679688 189.3125 259.621094 190.132812 260.445312 191.132812 C 260.886719 191.664062 261.367188 192.15625 262.035156 192.890625 C 261.34375 192.769531 260.960938 192.707031 260.453125 192.617188 C 260.421875 193.011719 260.390625 193.382812 260.355469 193.820312 C 259.976562 193.578125 259.65625 193.371094 259.203125 193.085938 C 258.734375 194.792969 258.621094 196.402344 258.851562 198.015625 C 258.925781 198.546875 259.296875 199.050781 259.570312 199.542969 C 259.875 200.101562 260.265625 200.625 260.546875 201.191406 C 261.234375 202.578125 261.03125 203.839844 260 204.917969 C 259.191406 205.757812 258.347656 205.96875 257.304688 205.382812 C 256.515625 204.933594 255.808594 204.316406 255.117188 203.714844 C 254.648438 203.300781 254.269531 202.78125 253.730469 202.171875 C 253.539062 202.492188 253.351562 202.683594 253.304688 202.902344 C 252.914062 204.851562 252.585938 206.820312 252.167969 208.761719 C 251.773438 210.574219 251.117188 212.308594 250.234375 213.945312 C 249.828125 214.699219 249.800781 215.347656 250.121094 216.160156 C 251.488281 219.597656 252.789062 223.058594 254.097656 226.515625 C 254.296875 227.046875 254.464844 227.59375 254.558594 228.148438 C 254.648438 228.671875 254.300781 229.0625 253.816406 229.316406 C 252.910156 229.789062 250.953125 229.242188 250.335938 228.339844 C 250.226562 228.171875 250.082031 227.90625 250.144531 227.761719 C 250.464844 226.972656 249.949219 226.410156 249.683594 225.769531 C 248.570312 223.070312 247.5 220.363281 246.402344 217.664062 C 246.136719 217.007812 245.839844 216.367188 245.519531 215.640625 C 243.628906 215.597656 241.894531 216.183594 240.164062 216.417969 C 239.8125 218.488281 239.777344 232.347656 240.085938 234.480469 C 240.535156 234.957031 241.128906 234.855469 241.683594 234.855469 C 244.960938 234.871094 248.230469 234.871094 251.507812 234.875 C 255.5625 234.878906 259.621094 234.878906 263.675781 234.894531 C 264.378906 234.898438 265.082031 234.941406 265.855469 234.972656 C 266.25 235.832031 265.914062 236.722656 266.203125 237.617188 C 266.515625 237.867188 266.917969 238.144531 267.273438 238.476562 C 268.222656 239.347656 268.460938 240.40625 267.925781 241.574219 C 267.632812 242.21875 267.277344 242.84375 266.863281 243.417969 C 266.148438 244.394531 265.421875 245.363281 264.605469 246.257812 C 263.796875 247.148438 262.875 247.941406 261.847656 248.925781 C 261.8125 251.078125 261.777344 253.410156 261.742188 255.75 C 260.90625 256.160156 260.167969 256.097656 259.363281 255.871094 C 258.886719 254.230469 259.441406 252.558594 258.953125 250.886719 C 258.070312 250.863281 257.335938 251.195312 256.574219 251.71875 C 256.523438 253.050781 256.472656 254.386719 256.421875 255.660156 C 255.167969 256.148438 255.167969 256.160156 253.820312 255.734375 C 253.753906 254.59375 253.6875 253.414062 253.617188 252.128906 C 253.171875 252.070312 252.839844 252.003906 252.5 251.992188 C 252.148438 251.980469 251.800781 252.027344 251.402344 252.050781 C 250.707031 253.234375 251.378906 254.585938 250.957031 255.757812 C 249.691406 256.058594 249.691406 256.058594 248.335938 255.71875 C 248.300781 254.296875 248.265625 252.824219 248.222656 251.3125 C 247.5 250.804688 246.78125 250.425781 245.816406 250.253906 C 245.382812 252.152344 245.855469 254.011719 245.515625 255.777344 C 244.75 256.183594 244.058594 256.089844 243.222656 255.910156 C 243.148438 255.480469 243.011719 255.011719 243.007812 254.546875 C 242.984375 252.34375 242.996094 250.136719 242.996094 247.894531 C 242.261719 247.101562 241.542969 246.320312 240.84375 245.558594 C 240.300781 245.644531 240.351562 246.039062 240.347656 246.375 C 240.339844 248.9375 240.339844 251.5 240.339844 254.066406 C 240.339844 254.621094 240.339844 255.179688 240.339844 255.742188 C 239.390625 256.175781 238.585938 256.121094 237.675781 255.824219 C 237.449219 254.894531 237.574219 253.972656 237.558594 253.066406 C 237.539062 252.210938 237.5625 251.359375 237.554688 250.503906 C 237.542969 249.605469 237.628906 248.699219 237.417969 247.652344 C 236.339844 248 235.75 248.710938 234.941406 249.3125 C 234.941406 251.410156 234.941406 253.535156 234.941406 255.5625 C 234.144531 256.335938 233.339844 255.9375 232.492188 256.0625 C 232.378906 255.597656 232.21875 255.210938 232.203125 254.8125 C 232.164062 253.890625 232.207031 252.964844 232.179688 252.039062 C 232.167969 251.707031 232.054688 251.375 231.960938 250.90625 C 231.183594 251.085938 230.519531 251.242188 229.835938 251.402344 C 229.324219 252.863281 229.816406 254.324219 229.460938 255.75 C 228.648438 256.210938 227.851562 256.09375 226.917969 255.847656 C 226.855469 254.46875 226.792969 253.148438 226.734375 251.785156 C 225.914062 251.425781 225.179688 251.425781 224.359375 251.566406 C 223.9375 252.941406 224.332031 254.308594 224.082031 255.710938 C 223.269531 256.277344 222.414062 256.121094 221.414062 255.75 C 221.414062 253.960938 221.414062 252.199219 221.414062 250.351562 C 220.640625 249.882812 219.925781 249.449219 219.308594 249.078125 C 218.691406 249.257812 218.738281 249.652344 218.734375 249.988281 C 218.722656 251.269531 218.738281 252.550781 218.730469 253.832031 C 218.726562 254.464844 218.691406 255.097656 218.667969 255.679688 C 217.855469 256.265625 217.109375 256.007812 216.25 255.921875 C 216.191406 255.421875 216.105469 255.015625 216.101562 254.609375 C 216.085938 252.332031 216.035156 250.054688 216.117188 247.777344 C 216.164062 246.425781 215.753906 245.433594 214.582031 244.769531 C 213.582031 245.144531 213.429688 245.945312 213.433594 246.851562 C 213.441406 249.269531 213.4375 251.6875 213.433594 254.109375 C 213.433594 254.664062 213.398438 255.214844 213.375 255.800781 C 212.445312 256.15625 211.640625 256.132812 210.707031 255.804688 C 210.480469 253.449219 210.769531 251.105469 210.5625 248.714844 C 209.476562 248.65625 208.859375 249.371094 208.070312 249.871094 C 207.839844 251.851562 208.125 253.84375 207.914062 255.746094 C 207.050781 256.242188 206.304688 256.003906 205.503906 255.964844 C 205.023438 254.351562 205.570312 252.746094 205.117188 251.234375 C 204.398438 250.839844 203.730469 251.066406 202.980469 251.242188 C 202.28125 252.695312 203.035156 254.335938 202.476562 255.855469 C 202.175781 255.929688 201.90625 256.042969 201.640625 256.042969 C 201.15625 256.042969 200.667969 255.976562 200.097656 255.929688 C 199.648438 254.355469 200.167969 252.761719 199.777344 251.246094 C 199.050781 250.867188 198.324219 250.648438 197.472656 250.707031 C 196.972656 252.386719 197.492188 254.117188 197.140625 255.828125 C 196.25 256.113281 195.449219 256.152344 194.515625 255.726562 C 194.515625 253.53125 194.515625 251.339844 194.515625 249.25 C 193.738281 248.503906 193.042969 247.933594 192.054688 247.507812 C 191.660156 248.496094 191.867188 249.414062 191.832031 250.296875 C 191.796875 251.222656 191.84375 252.148438 191.816406 253.074219 C 191.796875 253.984375 191.957031 254.910156 191.660156 255.816406 C 190.9375 256.1875 190.246094 256.089844 189.40625 255.910156 C 189.332031 255.480469 189.183594 255.019531 189.179688 254.554688 C 189.152344 251.777344 189.167969 249.003906 189.152344 246.226562 C 189.148438 245.753906 189.089844 245.277344 189.058594 244.75 C 187.191406 245.726562 186.546875 246.660156 186.523438 248.347656 C 186.511719 249.558594 186.523438 250.769531 186.523438 251.980469 C 186.523438 253.1875 186.523438 254.394531 186.523438 255.574219 C 185.371094 256.132812 185.371094 256.132812 183.800781 255.71875 C 183.585938 253.722656 183.839844 251.660156 183.664062 249.585938 C 182.636719 249.351562 182.046875 250.125 181.132812 250.324219 C 181.132812 252.160156 181.132812 253.921875 181.132812 255.664062 C 180.207031 256.21875 179.40625 256.078125 178.445312 255.871094 C 178.402344 254.339844 178.359375 252.875 178.320312 251.460938 C 177.09375 251.101562 177.09375 251.101562 175.914062 251.484375 C 175.378906 252.859375 176.050781 254.414062 175.476562 255.875 C 174.691406 256.125 173.953125 256.140625 173.066406 255.820312 C 173.03125 254.183594 172.992188 252.570312 172.953125 250.890625 C 172.1875 250.546875 171.507812 250.21875 170.550781 250.246094 C 170.089844 252.050781 170.542969 253.902344 170.277344 255.730469 C 169.476562 256.226562 168.664062 256.085938 167.710938 255.859375 C 167.285156 253.328125 167.773438 250.773438 167.449219 248.152344 C 166.800781 247.605469 166.105469 247.023438 165.476562 246.496094 C 164.878906 246.691406 164.925781 247.074219 164.921875 247.414062 C 164.914062 249.480469 164.917969 251.542969 164.917969 253.609375 C 164.917969 254.3125 164.917969 255.015625 164.917969 255.667969 C 163.765625 256.089844 163.765625 256.109375 162.414062 255.8125 C 162.371094 255.460938 162.269531 255.058594 162.269531 254.65625 C 162.253906 252.519531 162.269531 250.386719 162.257812 248.25 C 162.253906 247.78125 162.191406 247.308594 162.140625 246.667969 C 161.066406 247.039062 160.558594 247.855469 159.71875 248.40625 C 159.457031 250.769531 159.726562 253.1875 159.582031 255.628906 C 158.75 256.308594 157.886719 256.089844 156.945312 255.84375 C 156.636719 254.101562 156.976562 252.386719 156.730469 250.6875 C 155.734375 250.480469 155.058594 251.046875 154.222656 251.324219 C 154.183594 252.863281 154.144531 254.335938 154.109375 255.867188 C 153.726562 255.949219 153.460938 256.046875 153.191406 256.050781 C 152.707031 256.054688 152.21875 256.003906 151.683594 255.972656 C 151.199219 254.601562 151.75 253.207031 151.285156 251.839844 C 150.566406 251.476562 149.828125 251.511719 148.921875 251.730469 C 148.851562 253.066406 148.789062 254.394531 148.722656 255.683594 C 147.585938 256.082031 147.585938 256.097656 146.257812 255.820312 C 145.855469 254.214844 146.3125 252.496094 145.992188 250.765625 C 145.449219 250.480469 144.894531 250.167969 144.324219 249.898438 C 144.148438 249.8125 143.917969 249.832031 143.605469 249.789062 C 143.234375 251.769531 143.613281 253.761719 143.382812 255.6875 C 142.25 256.136719 142.25 256.15625 140.808594 255.796875 C 140.460938 254.898438 140.695312 253.902344 140.652344 252.933594 C 140.617188 252.007812 140.648438 251.082031 140.648438 250.160156 C 140.648438 249.167969 140.648438 248.171875 140.648438 247.222656 C 139.851562 246.472656 139.140625 245.800781 138.402344 245.105469 C 137.964844 245.183594 138.015625 245.574219 138.015625 245.914062 C 138.007812 248.476562 138.011719 251.039062 138.011719 253.601562 C 138.011719 254.304688 138.011719 255.011719 138.011719 255.671875 C 137.160156 256.210938 136.417969 256.085938 135.523438 255.894531 C 135.210938 254.625 135.410156 253.351562 135.363281 252.097656 C 135.316406 250.847656 135.4375 249.585938 135.261719 248.207031 C 134.175781 248.410156 133.726562 249.261719 132.933594 249.542969 C 132.429688 251.621094 132.953125 253.699219 132.632812 255.695312 C 131.472656 256.082031 131.472656 256.082031 130.046875 255.796875 C 129.664062 254.476562 130.167969 253.019531 129.746094 251.625 C 128.898438 251.382812 128.195312 251.714844 127.347656 252.074219 C 127.320312 252.652344 127.289062 253.28125 127.261719 253.90625 C 127.234375 254.53125 127.214844 255.160156 127.1875 255.851562 C 126.363281 256.15625 125.621094 256.113281 124.804688 255.957031 C 124.234375 254.707031 124.886719 253.359375 124.320312 252.027344 C 123.707031 251.953125 123.019531 251.875 122.195312 251.78125 C 122.085938 252.25 121.945312 252.628906 121.917969 253.023438 C 121.855469 253.933594 121.96875 254.863281 121.808594 255.742188 C 120.976562 256.207031 120.226562 256.097656 119.351562 255.90625 C 118.949219 254.21875 119.375 252.503906 119.109375 250.789062 C 118.523438 250.082031 117.722656 249.707031 116.71875 249.34375 C 116.304688 251.578125 116.734375 253.699219 116.46875 255.746094 C 115.183594 256.070312 115.183594 256.070312 113.832031 255.734375 C 113.800781 255.296875 113.742188 254.820312 113.742188 254.339844 C 113.734375 252.0625 113.722656 249.785156 113.75 247.507812 C 113.757812 246.75 113.519531 246.15625 113.035156 245.574219 C 112.261719 244.648438 111.554688 243.664062 110.859375 242.675781 C 109.730469 241.066406 109.535156 239.230469 111.652344 237.933594 C 111.761719 237.867188 111.84375 237.734375 112.007812 237.550781 C 112.046875 236.804688 112.082031 235.972656 112.132812 235.007812 C 114.074219 234.796875 115.914062 234.925781 117.746094 234.902344 C 119.59375 234.878906 121.445312 234.890625 123.296875 234.886719 C 125.074219 234.882812 126.855469 234.875 128.632812 234.875 C 130.484375 234.875 132.335938 234.878906 134.183594 234.878906 C 136.03125 234.878906 137.878906 234.878906 139.792969 234.878906 C 139.925781 234.472656 140.117188 234.152344 140.117188 233.832031 C 140.125 228.566406 140.113281 223.296875 140.089844 218.03125 C 140.089844 217.898438 140.003906 217.769531 139.910156 217.488281 C 139.222656 217.132812 138.339844 217.292969 137.523438 217.140625 C 136.769531 216.996094 135.992188 216.953125 135.140625 216.855469 C 134.910156 217.394531 134.6875 217.824219 134.542969 218.28125 C 133.699219 220.921875 132.863281 223.566406 132.054688 226.21875 C 131.804688 227.027344 131.652344 227.867188 131.472656 228.699219 C 131.300781 229.484375 131.109375 230.253906 130.222656 230.523438 C 129.316406 230.796875 128.273438 230.367188 127.640625 229.445312 C 127.492188 229.226562 127.367188 228.898438 127.417969 228.65625 C 127.621094 227.625 127.855469 226.59375 128.148438 225.582031 C 128.917969 222.914062 129.722656 220.265625 130.515625 217.605469 C 130.613281 217.273438 130.699219 216.929688 130.796875 216.554688 C 130.492188 216.125 130.21875 215.722656 129.921875 215.328125 C 128.578125 213.558594 128.300781 211.582031 128.8125 209.460938 C 128.945312 208.910156 129.074219 208.34375 129.300781 207.828125 C 129.640625 207.066406 129.429688 206.484375 128.929688 205.878906 C 127.679688 204.367188 126.207031 203.179688 124.355469 202.488281 C 124.03125 202.363281 123.703125 202.261719 123.289062 202.121094 C 123.480469 201.75 123.625 201.472656 123.820312 201.101562 C 122.726562 200.101562 121.140625 200.457031 119.703125 199.722656 C 120.425781 199.34375 120.960938 199.054688 121.542969 198.75 C 121.113281 197.742188 119.964844 197.769531 119.28125 196.964844 C 119.804688 196.859375 120.257812 196.6875 120.707031 196.695312 C 121.519531 196.707031 122 196.230469 122.476562 195.691406 Z M 227.9375 205.710938 C 227.40625 205.085938 226.871094 204.328125 226.203125 203.710938 C 225.535156 203.085938 224.746094 202.582031 223.992188 202.054688 C 223.269531 201.550781 222.289062 201.535156 221.582031 200.996094 C 221.800781 200.570312 222.324219 200.511719 222.113281 199.863281 C 220.894531 199.539062 219.585938 199.191406 218.265625 198.839844 C 218.617188 198.042969 219.742188 198.375 219.84375 197.453125 C 219.308594 196.800781 218.363281 196.722656 217.601562 195.894531 C 218.457031 195.792969 219.0625 195.65625 219.667969 195.667969 C 220.257812 195.679688 220.277344 195.210938 220.554688 194.804688 C 221.242188 195.128906 221.933594 195.476562 222.648438 195.773438 C 222.875 195.867188 223.285156 195.933594 223.386719 195.816406 C 223.691406 195.46875 223.992188 195.46875 224.308594 195.679688 C 224.839844 196.03125 225.332031 196.433594 225.859375 196.800781 C 226.148438 196.996094 226.480469 197.316406 226.761719 197.285156 C 227.648438 197.179688 228.089844 197.738281 228.472656 198.328125 C 229.125 199.339844 229.703125 200.394531 230.3125 201.441406 C 230.550781 201.855469 230.769531 202.28125 230.964844 202.648438 C 233.203125 202.085938 235.3125 201.558594 237.390625 201.035156 C 237.453125 200.71875 237.527344 200.511719 237.527344 200.304688 C 237.53125 194.117188 237.53125 187.925781 237.511719 181.734375 C 237.511719 181.421875 237.371094 181.109375 237.28125 180.753906 C 233.792969 181.535156 231.128906 180.667969 229.4375 177.09375 C 229.230469 177.484375 229.117188 177.671875 229.035156 177.867188 C 227.402344 181.824219 220.835938 182.199219 218.605469 178.386719 C 218.480469 178.171875 218.242188 178.023438 218.039062 177.824219 C 217.835938 178.070312 217.695312 178.230469 217.5625 178.394531 C 215.226562 181.324219 211.300781 181.25 209.046875 178.230469 C 208.800781 177.902344 208.542969 177.585938 208.273438 177.234375 C 206.859375 179.511719 206.859375 179.511719 204.585938 180.9375 C 204.078125 183.273438 203.742188 185.714844 203.519531 188.292969 C 204.785156 188.496094 205.933594 188.820312 206.910156 187.773438 C 207.621094 188.746094 207.644531 188.710938 208.746094 189.4375 C 209.449219 189.902344 210.105469 190.460938 210.722656 191.039062 C 211.34375 191.621094 211.894531 192.277344 212.46875 192.910156 C 212.542969 192.992188 212.550781 193.132812 212.628906 193.347656 C 212.117188 193.257812 211.664062 193.183594 211.152344 193.09375 C 211.152344 193.566406 211.152344 193.914062 211.152344 194.332031 C 210.707031 194.058594 210.378906 193.855469 209.859375 193.539062 C 209.761719 194.59375 209.699219 195.433594 209.601562 196.269531 C 209.414062 197.8125 209.675781 199.222656 210.636719 200.5 C 211.058594 201.0625 211.40625 201.710938 211.640625 202.371094 C 212.097656 203.683594 211.511719 204.742188 210.574219 205.613281 C 209.746094 206.382812 208.78125 206.449219 207.644531 205.644531 C 206.730469 204.996094 205.984375 204.109375 205.15625 203.339844 C 204.925781 203.125 204.664062 202.941406 204.308594 202.65625 C 204.210938 203.128906 204.15625 203.40625 204.09375 203.675781 C 203.597656 205.96875 203.222656 208.292969 202.570312 210.539062 C 202.214844 211.757812 202.15625 212.84375 202.46875 214.058594 C 204.078125 220.320312 205.628906 226.597656 207.214844 232.867188 C 207.367188 233.472656 207.605469 234.058594 207.84375 234.765625 C 208.589844 234.800781 209.289062 234.859375 209.984375 234.863281 C 214.324219 234.878906 218.667969 234.878906 223.003906 234.878906 C 227.203125 234.878906 231.398438 234.882812 235.597656 234.867188 C 236.214844 234.863281 236.890625 235.03125 237.464844 234.425781 C 237.464844 228.523438 237.464844 222.5625 237.464844 216.628906 C 235.90625 216.015625 235.449219 215.949219 233.390625 216.082031 C 233.257812 216.4375 233.085938 216.816406 232.972656 217.21875 C 231.941406 220.910156 230.476562 224.476562 229.703125 228.25 C 229.449219 229.496094 228.421875 229.964844 227.261719 229.425781 C 226.828125 229.222656 226.414062 228.898438 226.101562 228.535156 C 225.910156 228.304688 225.804688 227.863281 225.871094 227.5625 C 226.226562 225.980469 226.609375 224.402344 227.054688 222.839844 C 227.636719 220.789062 228.265625 218.753906 228.90625 216.71875 C 229.164062 215.90625 229.125 215.195312 228.507812 214.550781 C 228.265625 214.300781 228.089844 213.980469 227.90625 213.671875 C 227.0625 212.277344 226.6875 210.804688 227.101562 209.179688 C 227.355469 208.144531 227.597656 207.109375 227.9375 205.710938 Z M 175.972656 196.316406 C 175.21875 191.160156 174.5 186.242188 173.757812 181.324219 C 173.722656 181.078125 173.511719 180.855469 173.421875 180.691406 C 172.242188 180.8125 171.199219 180.972656 170.144531 181.011719 C 169.128906 181.050781 168.152344 180.699219 167.347656 180.105469 C 166.515625 179.492188 165.816406 178.703125 165.015625 177.949219 C 164.828125 178.179688 164.632812 178.382812 164.476562 178.613281 C 162.398438 181.714844 157.414062 181.789062 155.109375 179.222656 C 154.84375 178.925781 154.523438 178.679688 154.296875 178.476562 C 153.304688 179.195312 152.496094 179.890625 151.585938 180.414062 C 150.652344 180.945312 149.578125 181.082031 148.488281 181.058594 C 147.398438 181.035156 146.347656 180.824219 145.429688 180.257812 C 144.554688 179.710938 143.765625 179.027344 142.757812 178.269531 C 142.667969 178.902344 142.542969 179.367188 142.542969 179.828125 C 142.519531 186.800781 142.515625 193.769531 142.515625 200.742188 C 142.515625 201.144531 142.640625 201.546875 142.699219 201.90625 C 144.03125 202.175781 144.03125 202.160156 145.152344 201.820312 C 145.199219 201.308594 145.238281 200.753906 145.300781 200.199219 C 145.605469 197.535156 146.421875 195.066406 148.078125 192.921875 C 150.066406 190.347656 152.59375 188.8125 155.929688 188.980469 C 156.742188 189.023438 157.234375 188.628906 157.882812 188.074219 C 158.050781 188.992188 158.566406 189.484375 159.324219 189.804688 C 160.320312 190.230469 161.085938 190.980469 161.789062 191.804688 C 162.25 192.34375 162.765625 192.835938 163.246094 193.359375 C 163.316406 193.4375 163.332031 193.570312 163.414062 193.78125 C 162.898438 193.726562 162.449219 193.675781 161.980469 193.625 C 161.980469 194.058594 161.980469 194.390625 161.980469 194.773438 C 161.570312 194.539062 161.226562 194.34375 160.722656 194.050781 C 160.59375 195.09375 160.527344 196.003906 160.363281 196.886719 C 160.113281 198.230469 160.445312 199.414062 161.164062 200.535156 C 161.542969 201.132812 161.917969 201.738281 162.253906 202.363281 C 162.90625 203.59375 162.582031 204.710938 161.753906 205.71875 C 160.902344 206.746094 159.886719 206.988281 158.730469 206.273438 C 157.894531 205.757812 157.175781 205.050781 156.4375 204.394531 C 156.03125 204.03125 155.691406 203.601562 155.164062 203.03125 C 154.671875 205.425781 154.339844 207.597656 153.75 209.699219 C 153.140625 211.875 152.273438 213.972656 151.464844 216.273438 C 151.539062 216.496094 151.664062 216.898438 151.816406 217.296875 C 153.109375 220.679688 154.410156 224.058594 155.707031 227.445312 C 155.882812 227.90625 156.070312 228.371094 156.199219 228.851562 C 156.34375 229.375 156.125 229.855469 155.675781 230.140625 C 154.703125 230.757812 153.742188 230.472656 152.832031 230.027344 C 152.117188 229.675781 151.484375 229.210938 151.804688 228.199219 C 151.875 227.96875 151.726562 227.640625 151.621094 227.386719 C 150.269531 224.101562 148.914062 220.820312 147.554688 217.539062 C 147.421875 217.21875 147.265625 216.90625 147.023438 216.390625 C 145.582031 216.804688 144.09375 216.765625 142.574219 217.4375 C 142.4375 219.320312 142.503906 221.234375 142.484375 223.148438 C 142.460938 225.070312 142.410156 226.992188 142.472656 228.910156 C 142.535156 230.800781 142.289062 232.714844 142.710938 234.667969 C 143.210938 234.734375 143.621094 234.820312 144.035156 234.832031 C 150.558594 235.058594 167.867188 234.949219 169.90625 234.667969 C 170.058594 234.320312 170.277344 233.949219 170.386719 233.546875 C 172.652344 225.109375 174.902344 216.664062 177.167969 208.226562 C 177.410156 207.316406 177.40625 206.410156 177.328125 205.480469 C 177.25 204.546875 176.871094 203.820312 176.078125 203.378906 C 174.964844 202.761719 173.804688 202.230469 172.675781 201.644531 C 172.570312 201.589844 172.523438 201.429688 172.445312 201.320312 C 172.667969 201.078125 173.109375 200.949219 172.835938 200.355469 C 172.320312 200.195312 171.730469 199.984375 171.128906 199.828125 C 170.460938 199.65625 169.78125 199.53125 169.105469 199.382812 C 169.339844 198.492188 170.582031 198.917969 170.617188 197.980469 C 170.144531 197.261719 169.164062 197.21875 168.5625 196.460938 C 169.542969 196.230469 170.40625 196.152344 171.144531 195.8125 C 171.589844 195.605469 171.941406 195.539062 172.324219 195.707031 C 173.027344 196.027344 173.699219 196.40625 174.457031 196.800781 C 174.488281 196.511719 174.503906 196.328125 174.53125 196.089844 C 174.925781 196.148438 175.324219 196.214844 175.972656 196.316406 Z M 122.21875 239.207031 C 121.824219 240.925781 121.777344 243.777344 122.089844 245.800781 C 123.332031 246.457031 123.332031 246.457031 124.402344 246.183594 C 124.722656 243.753906 124.660156 240.742188 124.238281 239.207031 C 123.570312 239.207031 122.882812 239.207031 122.21875 239.207031 Z M 151.25 246.15625 C 151.574219 243.722656 151.546875 240.953125 151.222656 239.265625 C 150.480469 239.074219 149.742188 238.996094 148.851562 239.414062 C 148.875 241.578125 148.632812 243.746094 148.988281 246.035156 C 149.789062 246.074219 150.472656 246.109375 151.25 246.15625 Z M 177.980469 245.589844 C 178.511719 244.136719 178.539062 240.9375 178.027344 239.207031 C 177.359375 239.207031 176.679688 239.207031 176.019531 239.207031 C 175.609375 241.078125 175.59375 243.777344 175.976562 245.59375 C 176.625 245.898438 177.304688 245.746094 177.980469 245.589844 Z M 253.636719 239.265625 C 252.683594 239.09375 251.941406 238.972656 251.265625 239.367188 C 250.945312 241.882812 251.015625 244.957031 251.425781 246.421875 C 252.144531 246.53125 252.890625 246.800781 253.644531 246.191406 C 253.765625 243.9375 253.777344 241.695312 253.636719 239.265625 Z M 129.863281 245.246094 C 129.871094 243.183594 130.078125 241.222656 129.734375 239.308594 C 128.429688 239.0625 128.425781 239.074219 127.433594 239.449219 C 127.125 241.757812 127.1875 244.726562 127.582031 246.109375 C 128.417969 246.199219 129.054688 245.742188 129.863281 245.246094 Z M 226.558594 245.914062 C 226.945312 244.125 226.914062 240.710938 226.480469 239.171875 C 225.765625 239.167969 225.011719 238.886719 224.171875 239.503906 C 224.171875 240.429688 224.148438 241.40625 224.175781 242.386719 C 224.207031 243.429688 224.027344 244.492188 224.34375 245.488281 C 225.054688 246.011719 225.773438 246.167969 226.558594 245.914062 Z M 202.984375 239.234375 C 202.546875 241.144531 202.566406 244.09375 203 245.515625 C 204.160156 245.480469 204.160156 245.480469 205.125 244.933594 C 205.40625 242.601562 205.363281 240.8125 204.984375 239.214844 C 204.585938 239.183594 204.167969 239.125 203.75 239.121094 C 203.484375 239.121094 203.21875 239.199219 202.984375 239.234375 Z M 256.652344 245.78125 C 257.496094 245.273438 258.070312 244.992188 258.566406 244.609375 C 258.820312 244.417969 259.074219 244.046875 259.089844 243.742188 C 259.160156 242.273438 259.308594 240.792969 258.960938 239.300781 C 258.152344 239.042969 257.421875 239.023438 256.558594 239.363281 C 256.496094 241.402344 256.367188 243.414062 256.652344 245.78125 Z M 229.878906 245.53125 C 230.722656 245.691406 231.335938 245.207031 232.023438 244.765625 C 232.296875 242.933594 232.28125 241.125 232.03125 239.34375 C 230.746094 239.0625 230.746094 239.074219 229.757812 239.449219 C 229.472656 241.722656 229.515625 244.050781 229.878906 245.53125 Z M 197.550781 239.207031 C 197.171875 241.066406 197.167969 242.863281 197.519531 244.582031 C 198.15625 245.023438 198.824219 245.394531 199.699219 245.3125 C 200.09375 244.316406 199.898438 243.3125 199.890625 242.339844 C 199.886719 241.304688 200.132812 240.222656 199.5625 239.113281 C 198.878906 239.144531 198.199219 239.175781 197.550781 239.207031 Z M 156.726562 243.96875 C 156.863281 242.414062 156.855469 240.882812 156.726562 239.289062 C 155.847656 239.054688 155.117188 239.039062 154.335938 239.308594 C 154.046875 240.355469 154.167969 241.347656 154.1875 242.324219 C 154.203125 243.269531 153.980469 244.257812 154.429688 245.3125 C 155.398438 245.039062 156.046875 244.523438 156.726562 243.96875 Z M 170.460938 243.625 C 171.152344 244.183594 171.78125 244.863281 172.898438 244.738281 C 173.050781 242.898438 173.121094 241.105469 172.828125 239.207031 C 172 239.164062 171.265625 238.886719 170.460938 239.4375 C 170.460938 240.796875 170.460938 242.1875 170.460938 243.625 Z M 245.851562 239.214844 C 245.550781 240.160156 245.648438 241.007812 245.660156 241.835938 C 245.683594 243.4375 246.292969 244.152344 248.117188 244.765625 C 248.421875 243.878906 248.292969 242.960938 248.265625 242.066406 C 248.234375 241.113281 248.542969 240.101562 247.914062 239.101562 C 247.246094 239.136719 246.566406 239.175781 245.851562 239.214844 Z M 145.953125 244.679688 C 146.125 242.585938 146.261719 240.929688 145.90625 239.296875 C 144.578125 239.0625 144.578125 239.078125 143.460938 239.503906 C 143.460938 240.230469 143.480469 241.007812 143.453125 241.785156 C 143.4375 242.398438 143.613281 242.902344 144.105469 243.28125 C 144.601562 243.664062 145.105469 244.039062 145.953125 244.679688 Z M 183.613281 242.335938 C 183.761719 241.320312 183.839844 240.296875 183.53125 239.234375 C 182.695312 239.089844 181.957031 238.988281 181.191406 239.382812 C 180.992188 240.824219 181.0625 242.21875 181.164062 243.613281 C 181.171875 243.710938 181.332031 243.796875 181.488281 243.960938 C 182.371094 243.699219 182.945312 242.988281 183.613281 242.335938 Z M 119.085938 239.261719 C 118.113281 239.101562 117.363281 238.925781 116.546875 239.496094 C 116.6875 240.351562 116.230469 241.316406 116.945312 242.097656 C 117.519531 242.734375 117.941406 243.628906 119.085938 243.714844 C 119.085938 242.210938 119.085938 240.824219 119.085938 239.261719 Z M 221.261719 243.769531 C 221.375 241.96875 221.570312 240.585938 221.113281 239.125 C 220.558594 239.125 220.066406 239.105469 219.578125 239.132812 C 219.382812 239.144531 219.1875 239.25 218.9375 239.332031 C 218.222656 241.417969 219.664062 242.386719 221.261719 243.769531 Z M 208.089844 243.09375 C 209.070312 242.847656 209.425781 242.203125 209.929688 241.753906 C 210.707031 241.0625 210.804688 240.234375 210.429688 239.234375 C 209.664062 239.074219 208.929688 239.03125 208.085938 239.320312 C 207.953125 240.546875 207.953125 241.714844 208.089844 243.09375 Z M 135.15625 239.371094 C 133.960938 239.066406 133.960938 239.066406 132.726562 239.4375 C 132.726562 240.152344 132.703125 240.921875 132.738281 241.6875 C 132.75 241.90625 132.925781 242.121094 133.132812 242.550781 C 133.933594 241.378906 134.804688 240.566406 135.15625 239.371094 Z M 234.984375 242.148438 C 236.164062 241.152344 236.886719 240.402344 237.121094 239.195312 C 236.300781 239.117188 235.613281 238.929688 234.984375 239.425781 C 234.984375 240.222656 234.984375 240.972656 234.984375 242.148438 Z M 194.34375 239.109375 C 193.628906 239.15625 193.09375 239.1875 192.425781 239.230469 C 192.730469 240.332031 193.359375 240.996094 194.222656 241.761719 C 194.574219 240.828125 194.484375 240.101562 194.34375 239.109375 Z M 263.128906 239.253906 C 261.792969 239.226562 261.792969 239.226562 261.988281 240.695312 C 262.65625 240.25 262.65625 240.25 263.128906 239.253906 Z M 167.382812 240.464844 C 167.425781 240 167.515625 239.738281 167.464844 239.503906 C 167.394531 239.1875 167.113281 239.074219 166.84375 239.25 C 166.734375 239.320312 166.65625 239.617188 166.71875 239.734375 C 166.832031 239.957031 167.050781 240.117188 167.382812 240.464844 Z M 160.625 239.382812 C 160.410156 239.300781 160.214844 239.15625 160.078125 239.199219 C 159.921875 239.246094 159.742188 239.441406 159.699219 239.601562 C 159.660156 239.769531 159.777344 239.980469 159.824219 240.171875 C 159.992188 240.113281 160.207031 240.101562 160.320312 239.988281 C 160.453125 239.855469 160.503906 239.636719 160.625 239.382812 Z M 160.625 239.382812 " fill-opacity="1" fill-rule="nonzero"/></g><path fill="#ffffff" d="M 122.476562 195.675781 C 122.378906 195.75 122.289062 195.835938 122.183594 195.898438 C 122.136719 195.929688 122.070312 195.921875 122.011719 195.933594 C 122.050781 195.886719 122.078125 195.816406 122.128906 195.792969 C 122.234375 195.742188 122.34375 195.714844 122.457031 195.675781 C 122.460938 195.671875 122.476562 195.675781 122.476562 195.675781 Z M 122.476562 195.675781 " fill-opacity="1" fill-rule="nonzero"/><g fill="#ffffff" fill-opacity="1"><g transform="translate(56.542016, 280.120813)"><g><path d="M 0.75 -13.546875 C 0.75 -17.460938 2.082031 -20.773438 4.75 -23.484375 C 7.414062 -26.191406 10.628906 -27.546875 14.390625 -27.546875 C 18.179688 -27.546875 21.398438 -26.195312 24.046875 -23.5 C 26.691406 -20.800781 28.015625 -17.484375 28.015625 -13.546875 C 28.015625 -9.585938 26.710938 -6.257812 24.109375 -3.5625 C 21.503906 -0.863281 18.265625 0.484375 14.390625 0.484375 C 10.441406 0.484375 7.179688 -0.851562 4.609375 -3.53125 C 2.035156 -6.207031 0.75 -9.546875 0.75 -13.546875 Z M 7.40625 -13.546875 C 7.40625 -12.117188 7.625 -10.820312 8.0625 -9.65625 C 8.5 -8.488281 9.265625 -7.5 10.359375 -6.6875 C 11.453125 -5.882812 12.796875 -5.484375 14.390625 -5.484375 C 16.691406 -5.484375 18.425781 -6.269531 19.59375 -7.84375 C 20.757812 -9.414062 21.34375 -11.316406 21.34375 -13.546875 C 21.34375 -15.753906 20.75 -17.648438 19.5625 -19.234375 C 18.375 -20.816406 16.648438 -21.609375 14.390625 -21.609375 C 12.160156 -21.609375 10.4375 -20.816406 9.21875 -19.234375 C 8.007812 -17.648438 7.40625 -15.753906 7.40625 -13.546875 Z M 7.40625 -13.546875 "/></g></g></g><g fill="#ffffff" fill-opacity="1"><g transform="translate(111.538423, 280.120813)"><g><path d="M 16.359375 -5.578125 C 17.304688 -5.578125 18.222656 -5.71875 19.109375 -6 C 19.992188 -6.28125 20.644531 -6.554688 21.0625 -6.828125 L 21.671875 -7.25 L 24.296875 -2 C 24.210938 -1.9375 24.09375 -1.847656 23.9375 -1.734375 C 23.789062 -1.628906 23.4375 -1.425781 22.875 -1.125 C 22.320312 -0.832031 21.726562 -0.578125 21.09375 -0.359375 C 20.457031 -0.140625 19.625 0.0507812 18.59375 0.21875 C 17.5625 0.394531 16.503906 0.484375 15.421875 0.484375 C 12.898438 0.484375 10.515625 -0.128906 8.265625 -1.359375 C 6.015625 -2.597656 4.195312 -4.296875 2.8125 -6.453125 C 1.4375 -8.617188 0.75 -10.960938 0.75 -13.484375 C 0.75 -15.378906 1.15625 -17.203125 1.96875 -18.953125 C 2.78125 -20.703125 3.859375 -22.195312 5.203125 -23.4375 C 6.546875 -24.6875 8.113281 -25.679688 9.90625 -26.421875 C 11.695312 -27.171875 13.535156 -27.546875 15.421875 -27.546875 C 17.160156 -27.546875 18.769531 -27.335938 20.25 -26.921875 C 21.726562 -26.503906 22.773438 -26.09375 23.390625 -25.6875 L 24.296875 -25.0625 L 21.671875 -19.8125 C 21.523438 -19.9375 21.296875 -20.09375 20.984375 -20.28125 C 20.679688 -20.46875 20.070312 -20.710938 19.15625 -21.015625 C 18.238281 -21.328125 17.304688 -21.484375 16.359375 -21.484375 C 14.878906 -21.484375 13.546875 -21.238281 12.359375 -20.75 C 11.179688 -20.269531 10.25 -19.632812 9.5625 -18.84375 C 8.875 -18.0625 8.347656 -17.21875 7.984375 -16.3125 C 7.617188 -15.40625 7.4375 -14.484375 7.4375 -13.546875 C 7.4375 -11.492188 8.207031 -9.648438 9.75 -8.015625 C 11.289062 -6.390625 13.492188 -5.578125 16.359375 -5.578125 Z M 16.359375 -5.578125 "/></g></g></g><g fill="#ffffff" fill-opacity="1"><g transform="translate(162.469207, 280.120813)"><g><path d="M 1.96875 -27.0625 L 10.359375 -27.0625 C 12.898438 -27.0625 14.921875 -26.519531 16.421875 -25.4375 C 17.929688 -24.351562 18.6875 -22.597656 18.6875 -20.171875 C 18.6875 -17.460938 17.5625 -15.523438 15.3125 -14.359375 C 19.164062 -13.679688 21.09375 -11.410156 21.09375 -7.546875 C 21.09375 -5.265625 20.300781 -3.4375 18.71875 -2.0625 C 17.144531 -0.6875 14.984375 0 12.234375 0 L 1.96875 0 Z M 8.140625 -16.46875 L 8.625 -16.46875 C 10 -16.46875 11.023438 -16.707031 11.703125 -17.1875 C 12.378906 -17.664062 12.71875 -18.453125 12.71875 -19.546875 C 12.71875 -21.378906 11.351562 -22.296875 8.625 -22.296875 L 8.140625 -22.296875 Z M 8.140625 -4.75 L 10.0625 -4.75 C 13.082031 -4.75 14.59375 -5.753906 14.59375 -7.765625 C 14.59375 -8.972656 14.210938 -9.835938 13.453125 -10.359375 C 12.703125 -10.890625 11.570312 -11.15625 10.0625 -11.15625 L 8.140625 -11.15625 Z M 8.140625 -4.75 "/></g></g></g><g fill="#ffffff" fill-opacity="1"><g transform="translate(210.547504, 280.120813)"><g><path d="M 11.9375 -27.546875 C 13.40625 -27.546875 14.835938 -27.332031 16.234375 -26.90625 C 17.628906 -26.476562 18.664062 -26.054688 19.34375 -25.640625 L 20.328125 -24.984375 L 17.84375 -20.078125 C 17.644531 -20.203125 17.367188 -20.367188 17.015625 -20.578125 C 16.671875 -20.785156 16.015625 -21.0625 15.046875 -21.40625 C 14.085938 -21.757812 13.191406 -21.9375 12.359375 -21.9375 C 11.335938 -21.9375 10.546875 -21.71875 9.984375 -21.28125 C 9.429688 -20.84375 9.15625 -20.253906 9.15625 -19.515625 C 9.15625 -19.140625 9.285156 -18.789062 9.546875 -18.46875 C 9.804688 -18.15625 10.253906 -17.816406 10.890625 -17.453125 C 11.523438 -17.097656 12.082031 -16.8125 12.5625 -16.59375 C 13.039062 -16.375 13.785156 -16.046875 14.796875 -15.609375 C 16.546875 -14.867188 18.035156 -13.859375 19.265625 -12.578125 C 20.503906 -11.296875 21.125 -9.847656 21.125 -8.234375 C 21.125 -6.679688 20.84375 -5.320312 20.28125 -4.15625 C 19.726562 -3 18.960938 -2.09375 17.984375 -1.4375 C 17.015625 -0.78125 15.9375 -0.296875 14.75 0.015625 C 13.570312 0.328125 12.296875 0.484375 10.921875 0.484375 C 9.742188 0.484375 8.582031 0.363281 7.4375 0.125 C 6.300781 -0.113281 5.347656 -0.410156 4.578125 -0.765625 C 3.816406 -1.128906 3.128906 -1.484375 2.515625 -1.828125 C 1.910156 -2.179688 1.46875 -2.476562 1.1875 -2.71875 L 0.75 -3.078125 L 3.84375 -8.265625 C 4.101562 -8.046875 4.460938 -7.765625 4.921875 -7.421875 C 5.378906 -7.085938 6.191406 -6.632812 7.359375 -6.0625 C 8.535156 -5.5 9.570312 -5.21875 10.46875 -5.21875 C 13.0625 -5.21875 14.359375 -6.101562 14.359375 -7.875 C 14.359375 -8.238281 14.265625 -8.578125 14.078125 -8.890625 C 13.898438 -9.210938 13.570312 -9.53125 13.09375 -9.84375 C 12.625 -10.164062 12.207031 -10.421875 11.84375 -10.609375 C 11.488281 -10.796875 10.898438 -11.078125 10.078125 -11.453125 C 9.265625 -11.835938 8.660156 -12.128906 8.265625 -12.328125 C 6.628906 -13.140625 5.359375 -14.148438 4.453125 -15.359375 C 3.554688 -16.578125 3.109375 -17.882812 3.109375 -19.28125 C 3.109375 -21.707031 4.003906 -23.691406 5.796875 -25.234375 C 7.597656 -26.773438 9.644531 -27.546875 11.9375 -27.546875 Z M 11.9375 -27.546875 "/></g></g></g><g fill="#ffffff" fill-opacity="1"><g transform="translate(258.822531, 280.120813)"><g><path d="M 2.53125 -26.203125 C 3.207031 -26.878906 4.015625 -27.21875 4.953125 -27.21875 C 5.890625 -27.21875 6.695312 -26.878906 7.375 -26.203125 C 8.050781 -25.523438 8.390625 -24.71875 8.390625 -23.78125 C 8.390625 -22.84375 8.050781 -22.03125 7.375 -21.34375 C 6.695312 -20.664062 5.890625 -20.328125 4.953125 -20.328125 C 4.015625 -20.328125 3.207031 -20.664062 2.53125 -21.34375 C 1.851562 -22.03125 1.515625 -22.84375 1.515625 -23.78125 C 1.515625 -24.71875 1.851562 -25.523438 2.53125 -26.203125 Z M 1.96875 -16.828125 L 1.96875 0 L 7.765625 0 L 7.765625 -16.828125 Z M 1.96875 -16.828125 "/></g></g></g><g fill="#ffffff" fill-opacity="1"><g transform="translate(294.966262, 280.120813)"><g><path d="M 1.96875 -27.0625 L 11.640625 -27.0625 C 14.242188 -27.0625 16.363281 -26.363281 18 -24.96875 C 19.644531 -23.582031 20.46875 -21.597656 20.46875 -19.015625 C 20.46875 -17.023438 19.96875 -15.359375 18.96875 -14.015625 C 17.976562 -12.671875 16.628906 -11.726562 14.921875 -11.1875 L 24.234375 0 L 16.390625 0 L 8.140625 -10.6875 L 8.140625 0 L 1.96875 0 Z M 8.140625 -15.046875 L 8.859375 -15.046875 C 9.421875 -15.046875 9.898438 -15.054688 10.296875 -15.078125 C 10.691406 -15.109375 11.140625 -15.1875 11.640625 -15.3125 C 12.140625 -15.445312 12.539062 -15.632812 12.84375 -15.875 C 13.15625 -16.113281 13.421875 -16.460938 13.640625 -16.921875 C 13.859375 -17.378906 13.96875 -17.9375 13.96875 -18.59375 C 13.96875 -19.25 13.859375 -19.804688 13.640625 -20.265625 C 13.421875 -20.722656 13.15625 -21.070312 12.84375 -21.3125 C 12.539062 -21.550781 12.140625 -21.738281 11.640625 -21.875 C 11.140625 -22.007812 10.691406 -22.085938 10.296875 -22.109375 C 9.898438 -22.128906 9.421875 -22.140625 8.859375 -22.140625 L 8.140625 -22.140625 Z M 8.140625 -15.046875 "/></g></g></g></svg>